<svg width="42" height="42" viewBox="0 0 42 42" fill="none" xmlns="http://www.w3.org/2000/svg">
<path d="M21 21L26.25 15.75M33.25 21H21H33.25ZM21 21L26.25 26.25L21 21Z" stroke="black" stroke-width="2.625" stroke-linecap="round" stroke-linejoin="round"/>
<path d="M33.25 10.5V8.75C33.25 7.82174 32.8813 6.9315 32.2249 6.27513C31.5685 5.61875 30.6783 5.25 29.75 5.25H12.25C11.3217 5.25 10.4315 5.61875 9.77513 6.27513C9.11875 6.9315 8.75 7.82174 8.75 8.75V33.25C8.75 34.1783 9.11875 35.0685 9.77513 35.7249C10.4315 36.3813 11.3217 36.75 12.25 36.75H29.75C30.6783 36.75 31.5685 36.3813 32.2249 35.7249C32.8813 35.0685 33.25 34.1783 33.25 33.25V31.5" stroke="black" stroke-width="2.625" stroke-linecap="round" stroke-linejoin="round"/>
</svg>
