<svg width="42" height="42" viewBox="0 0 42 42" fill="none" xmlns="http://www.w3.org/2000/svg">
<path fill-rule="evenodd" clip-rule="evenodd" d="M24.9375 15.3125C24.9375 16.3568 24.5227 17.3583 23.7842 18.0967C23.0458 18.8352 22.0443 19.25 21 19.25C19.9557 19.25 18.9542 18.8352 18.2158 18.0967C17.4773 17.3583 17.0625 16.3568 17.0625 15.3125C17.0625 14.2682 17.4773 13.2667 18.2158 12.5283C18.9542 11.7898 19.9557 11.375 21 11.375C22.0443 11.375 23.0458 11.7898 23.7842 12.5283C24.5227 13.2667 24.9375 14.2682 24.9375 15.3125ZM23.1875 15.3125C23.1875 15.8927 22.957 16.4491 22.5468 16.8593C22.1366 17.2695 21.5802 17.5 21 17.5C20.4198 17.5 19.8634 17.2695 19.4532 16.8593C19.043 16.4491 18.8125 15.8927 18.8125 15.3125C18.8125 14.7323 19.043 14.1759 19.4532 13.7657C19.8634 13.3555 20.4198 13.125 21 13.125C21.5802 13.125 22.1366 13.3555 22.5468 13.7657C22.957 14.1759 23.1875 14.7323 23.1875 15.3125Z" fill="black"/>
<path fill-rule="evenodd" clip-rule="evenodd" d="M7.8785 5.3025C8.10976 5.28312 8.33923 5.3564 8.51646 5.50622C8.69368 5.65604 8.80412 5.87012 8.8235 6.10137L9.07463 9.04925C17.8483 7.49525 23.9514 7.48125 32.9254 9.05537L33.1756 6.10137C33.1853 5.98686 33.2175 5.87539 33.2703 5.77331C33.3231 5.67123 33.3954 5.58056 33.4833 5.50645C33.5711 5.43235 33.6727 5.37627 33.7822 5.34143C33.8917 5.30658 34.007 5.29365 34.1215 5.30337L35.8654 5.45212C36.0965 5.47172 36.3103 5.58226 36.46 5.75946C36.6096 5.93665 36.6828 6.16601 36.6634 6.39712L36.3755 9.7825C36.5014 9.87027 36.602 9.98962 36.6672 10.1285C36.7323 10.2675 36.7598 10.4211 36.7469 10.574C36.734 10.7269 36.681 10.8738 36.5934 10.9998C36.5058 11.1258 36.3866 11.2265 36.2478 11.2919L35.9415 14.8986C35.9318 15.0132 35.8996 15.1248 35.8468 15.2269C35.7939 15.329 35.7215 15.4198 35.6335 15.4939C35.5456 15.568 35.4439 15.624 35.3343 15.6588C35.2247 15.6936 35.1093 15.7065 34.9948 15.6966L33.2518 15.5479C33.0207 15.5283 32.8068 15.4177 32.6572 15.2405C32.5075 15.0633 32.4344 14.834 32.4538 14.6029L32.7758 10.8054C32.3055 10.7223 31.8348 10.6424 31.3635 10.5656C31.4479 10.8271 31.4907 11.1002 31.4904 11.375L31.4939 11.6812V11.6882C31.5053 12.6954 31.5359 15.3527 31.2235 17.8867C31.0485 19.3042 30.7431 20.9134 30.1473 22.239C29.7019 23.2277 28.7875 24.6907 27.125 25.1965V26.1485C27.7769 25.9175 28.4305 25.6979 28.9713 25.5622C29.3134 25.4747 29.9381 25.3312 30.5865 25.389C31.1803 25.4363 31.7463 25.6607 32.2114 26.033C32.5374 26.2985 32.8 26.6337 32.9797 27.0139C33.1594 27.394 33.2518 27.8096 33.25 28.2301C33.25 29.0377 32.9901 30.9566 32.7828 32.3225C32.6716 33.0557 32.5553 33.7557 32.4643 34.2309L32.4564 34.2694C32.3925 34.6019 32.2963 35.098 32.0276 35.5495V35.5504L32.0259 35.553C31.9646 35.6554 31.689 36.1217 31.1194 36.4647C30.7701 36.6751 30.3768 36.8014 29.9703 36.8336C29.5639 36.8658 29.1555 36.8032 28.7775 36.6505C28.3994 36.4978 28.062 36.2594 27.792 35.954C27.5219 35.6485 27.3265 35.2845 27.2213 34.8906C27.0638 34.3105 27.0174 33.705 26.9938 33.1634C26.9857 32.9884 26.979 32.8134 26.9736 32.6384C26.9631 32.3365 26.9544 32.0609 26.9316 31.7887C26.1919 32.0489 25.4446 32.287 24.6908 32.5027C23.5533 32.8221 22.2381 33.1117 21 33.1117C19.7619 33.1117 18.4476 32.823 17.3093 32.5027C16.5675 32.2905 15.8322 32.0565 15.1043 31.801L15.0868 32.0294C15.0367 32.6906 14.9825 33.3516 14.924 34.0121C14.8978 34.3332 14.8549 34.8346 14.6484 35.2914C14.4736 35.6786 14.2074 36.0177 13.8727 36.2794C13.538 36.5411 13.1448 36.7177 12.7268 36.7939C12.3088 36.8702 11.8786 36.8438 11.4731 36.7172C11.0675 36.5905 10.6988 36.3672 10.3985 36.0666C9.76413 35.4322 9.67925 34.6421 9.625 34.1434L9.6075 33.9911C9.59 33.8441 9.56113 33.6516 9.52175 33.4136C9.45438 32.9962 9.366 32.5036 9.27063 31.9681L9.22863 31.7345C9.11735 31.1245 9.01351 30.5131 8.91713 29.9005C8.8375 29.3781 8.75 28.7385 8.75 28.2301C8.75 27.496 9.03788 26.6437 9.78863 26.0339C10.2976 25.6247 10.9269 25.3941 11.5798 25.3776C12.0418 25.3601 12.481 25.4354 12.7986 25.5062C12.8853 25.5255 12.9623 25.5447 13.0288 25.5614C13.5695 25.6979 14.2223 25.9175 14.875 26.1476V25.1825C14.7655 25.1464 14.6578 25.1053 14.5521 25.0591C13.496 24.5962 12.81 23.7116 12.3856 22.9652C12.2114 22.6589 12.0588 22.3408 11.9289 22.0132C11.4389 20.8005 11.144 19.3655 10.9524 18.0652C10.535 15.2337 10.5 12.2369 10.5 11.375C10.5 11.0897 10.5455 10.815 10.6295 10.5586C10.1684 10.6339 9.70025 10.7144 9.22338 10.8001L9.54625 14.6029C9.56564 14.834 9.49247 15.0633 9.34284 15.2405C9.19321 15.4177 8.97935 15.5283 8.74825 15.5479L7.00438 15.6966C6.77327 15.716 6.54391 15.6428 6.36672 15.4932C6.18952 15.3436 6.07898 15.1297 6.05938 14.8986L5.75313 11.2919C5.61382 11.227 5.4941 11.1265 5.40606 11.0005C5.31803 10.8745 5.2648 10.7276 5.25175 10.5744C5.2387 10.4213 5.26629 10.2674 5.33174 10.1284C5.39719 9.98934 5.49818 9.87002 5.6245 9.7825L5.33663 6.39625C5.31725 6.16513 5.39041 5.93578 5.54004 5.75858C5.68967 5.58139 5.90354 5.47084 6.13463 5.45125L7.8785 5.3025ZM15.3134 9.92425C15.5988 10.3542 15.7507 10.8589 15.75 11.375C15.75 12.1669 15.7859 14.8575 16.1464 17.2996C16.3275 18.5299 16.5655 19.5099 16.8289 20.125H25.34L25.3488 20.1049L25.3593 20.0839C25.6279 19.4862 25.858 18.5036 26.0129 17.2445C26.2771 15.1007 26.2553 12.8231 26.2439 11.767V11.7617L26.2413 11.375C26.2413 10.8421 26.3988 10.3469 26.6718 9.933C22.7343 9.5305 19.1931 9.52875 15.3134 9.92425ZM25.375 25.1842V24.4825C25.375 24.2656 25.4556 24.0564 25.6011 23.8955C25.7466 23.7346 25.9467 23.6336 26.1625 23.6119C27.3543 23.4911 28.1059 22.5094 28.5513 21.5206C29.0386 20.4374 29.3186 19.0365 29.4875 17.6724C29.7841 15.2626 29.7553 12.7059 29.7439 11.7005V11.6961L29.7404 11.375C29.7404 11.1429 29.6482 10.9204 29.4841 10.7563C29.32 10.5922 29.0974 10.5 28.8654 10.5C28.6333 10.5 28.4108 10.5922 28.2467 10.7563C28.0826 10.9204 27.9904 11.1429 27.9904 11.375L27.9939 11.7486V11.7582C28.0044 12.8144 28.0289 15.1917 27.7498 17.4589C27.5888 18.7696 27.3333 19.9614 26.9553 20.8014C26.775 21.2021 26.5991 21.4681 26.4189 21.637C26.2567 21.7897 26.0423 21.8749 25.8195 21.875H16.3083C16.1715 21.875 16.0365 21.843 15.9144 21.7815C15.7922 21.7199 15.6862 21.6306 15.6048 21.5206C15.4581 21.3126 15.3348 21.089 15.2373 20.8539C14.875 20.0244 14.6055 18.8501 14.4148 17.5551C14.035 14.9826 14 12.1905 14 11.375C14 11.1429 13.9078 10.9204 13.7437 10.7563C13.5796 10.5922 13.3571 10.5 13.125 10.5C12.8929 10.5 12.6704 10.5922 12.5063 10.7563C12.3422 10.9204 12.25 11.1429 12.25 11.375C12.25 12.0706 12.2745 14.1811 12.5099 16.4229C12.558 16.8831 12.6149 17.3504 12.6831 17.8106C12.8809 19.152 13.1775 20.5109 13.6351 21.5556C14.0341 22.4674 14.7219 23.4876 15.8454 23.6119C16.0596 23.6354 16.2577 23.7371 16.4016 23.8976C16.5454 24.0581 16.625 24.2661 16.625 24.4816V25.1842C16.8376 25.2481 17.108 25.3234 17.4265 25.3986C18.3068 25.6051 19.5501 25.8125 21 25.8125C22.2028 25.8114 23.4015 25.6725 24.5726 25.3986C24.892 25.3234 25.1624 25.2481 25.375 25.1842ZM16.625 27.0016C18.0539 27.3721 19.5239 27.5602 21 27.5616C22.4761 27.5602 23.9461 27.372 25.375 27.0016V27.3901C25.375 27.5303 25.4087 27.6685 25.4732 27.7929C25.5377 27.9174 25.6312 28.0246 25.7458 28.1054C25.8604 28.1861 25.9927 28.2382 26.1316 28.2572C26.2705 28.2762 26.412 28.2615 26.544 28.2144L27.0253 28.042C27.9195 27.7209 28.7674 27.4181 29.3991 27.258C29.7194 27.1775 30.0983 27.1022 30.4316 27.132C30.6014 27.1469 30.8691 27.1967 31.1071 27.391C31.3854 27.6167 31.5 27.9344 31.5 28.231C31.5 28.8759 31.2673 30.6451 31.0529 32.06C30.9618 32.6743 30.8594 33.2869 30.7458 33.8975C30.6714 34.2807 30.6215 34.4916 30.5235 34.6561L30.5191 34.6631C30.4307 34.8124 30.3 34.9322 30.1436 35.0074C29.9872 35.0827 29.8121 35.1099 29.6402 35.0858C29.4684 35.0616 29.3075 34.9872 29.1779 34.8718C29.0482 34.7564 28.9557 34.6053 28.9118 34.4374V34.4356C28.8068 34.0489 28.7648 33.6017 28.7411 33.0837C28.7349 32.9382 28.7293 32.7927 28.7245 32.6471C28.716 32.2566 28.6947 31.8664 28.6606 31.4772L28.56 30.5007C28.5461 30.369 28.5025 30.2421 28.4325 30.1297C28.3624 30.0172 28.2678 29.9222 28.1556 29.8516C28.0435 29.7811 27.9168 29.737 27.7851 29.7225C27.6534 29.7081 27.5201 29.7238 27.3954 29.7684C26.4189 30.1184 25.3076 30.5121 24.2174 30.8184C23.1271 31.1246 21.9966 31.3617 21 31.3617C20.0034 31.3617 18.8729 31.1246 17.7826 30.8184C16.7589 30.5296 15.7159 30.1647 14.784 29.8322L14.6116 29.771C14.4848 29.7256 14.3491 29.7102 14.2153 29.7258C14.0815 29.7415 13.9531 29.7878 13.8401 29.8612C13.7271 29.9346 13.6327 30.0332 13.564 30.1491C13.4954 30.265 13.4544 30.3953 13.4444 30.5296C13.412 30.9584 13.377 31.4326 13.3411 31.8946C13.286 32.606 13.2318 33.2946 13.1898 33.7531L13.1863 33.7925C13.1495 34.1994 13.1311 34.4015 13.0541 34.5704L13.0489 34.5826C12.989 34.7098 12.8994 34.8207 12.7876 34.906C12.6758 34.9913 12.5451 35.0484 12.4066 35.0725C12.2681 35.0966 12.1259 35.087 11.9918 35.0446C11.8578 35.0021 11.736 34.928 11.6366 34.8285C11.4529 34.6447 11.431 34.4715 11.3505 33.8257L11.3444 33.775C11.3169 33.5606 11.2853 33.3468 11.2499 33.1336C11.1799 32.7005 11.0889 32.1947 10.9944 31.6654L10.9506 31.4265C10.8422 30.831 10.7409 30.2342 10.647 29.6362C10.5656 29.1051 10.5 28.588 10.5 28.2301C10.5 27.9344 10.6138 27.6176 10.8929 27.3901C11.06 27.2545 11.2429 27.1889 11.3943 27.1574C11.459 27.1434 11.5176 27.1364 11.5675 27.1311C11.9018 27.1022 12.2806 27.1775 12.6 27.258C12.7575 27.2982 12.9273 27.3455 13.1075 27.4015C13.615 27.5572 14.2091 27.7672 14.8295 27.9895L15.456 28.2144C15.5881 28.2615 15.7295 28.2762 15.8684 28.2572C16.0073 28.2382 16.1396 28.1861 16.2542 28.1054C16.3688 28.0246 16.4623 27.9174 16.5268 27.7929C16.5914 27.6685 16.625 27.5303 16.625 27.3901V27.0016Z" fill="black"/>
</svg>
