<svg width="42" height="42" viewBox="0 0 42 42" fill="none" xmlns="http://www.w3.org/2000/svg">
<g clip-path="url(#clip0_3_371)">
<path d="M11.8125 21.6563H5.25C5.07596 21.6563 4.90904 21.5871 4.78597 21.464C4.6629 21.341 4.59375 21.1741 4.59375 21C4.59375 20.826 4.6629 20.659 4.78597 20.536C4.90904 20.4129 5.07596 20.3438 5.25 20.3438H11.468L13.8961 16.7016C13.9537 16.6101 14.0336 16.5347 14.1283 16.4824C14.223 16.4301 14.3294 16.4027 14.4375 16.4027C14.5456 16.4027 14.652 16.4301 14.7467 16.4824C14.8414 16.5347 14.9213 16.6101 14.9789 16.7016L19.6875 23.7563L21.7711 20.6391C21.8302 20.5493 21.9105 20.4753 22.0049 20.4239C22.0994 20.3724 22.205 20.3449 22.3125 20.3438H26.25C26.4241 20.3438 26.591 20.4129 26.714 20.536C26.8371 20.659 26.9063 20.826 26.9063 21C26.9063 21.1741 26.8371 21.341 26.714 21.464C26.591 21.5871 26.4241 21.6563 26.25 21.6563H22.657L20.2289 25.2984C20.1713 25.3899 20.0914 25.4654 19.9967 25.5176C19.902 25.5699 19.7956 25.5973 19.6875 25.5973C19.5794 25.5973 19.473 25.5699 19.3783 25.5176C19.2836 25.4654 19.2037 25.3899 19.1461 25.2984L14.4375 18.2438L12.3539 21.3609C12.2948 21.4508 12.2145 21.5247 12.1201 21.5762C12.0257 21.6277 11.92 21.6552 11.8125 21.6563ZM28.875 5.90626C27.2898 5.90209 25.7306 6.30965 24.3502 7.08902C22.9697 7.86838 21.8153 8.99286 21 10.3523C19.965 8.62992 18.3937 7.29433 16.5271 6.55023C14.6604 5.80612 12.6013 5.69453 10.6651 6.23255C8.729 6.77057 7.02265 7.92854 5.80753 9.52902C4.5924 11.1295 3.93551 13.0843 3.9375 15.0938C3.9375 15.3234 3.9375 15.5531 3.95391 15.7828C3.96261 15.9569 4.0401 16.1203 4.16932 16.2372C4.29855 16.3542 4.46892 16.415 4.64297 16.4063C4.81702 16.3976 4.98048 16.3201 5.0974 16.1908C5.21432 16.0616 5.27511 15.8912 5.26641 15.7172C5.25 15.5039 5.25 15.2906 5.25 15.0938C5.24925 13.2732 5.87926 11.5087 7.03285 10.1003C8.18645 8.69199 9.79236 7.72682 11.5774 7.36904C13.3624 7.01127 15.2162 7.28299 16.8235 8.13798C18.4307 8.99298 19.6921 10.3784 20.393 12.0586C20.4419 12.1796 20.5258 12.2832 20.6339 12.3563C20.7421 12.4293 20.8695 12.4685 21 12.4688C21.1305 12.4685 21.258 12.4293 21.3661 12.3563C21.4742 12.2832 21.5581 12.1796 21.607 12.0586C22.3079 10.3784 23.5693 8.99298 25.1766 8.13798C26.7838 7.28299 28.6376 7.01127 30.4226 7.36904C32.2076 7.72682 33.8136 8.69199 34.9672 10.1003C36.1208 11.5087 36.7508 13.2732 36.75 15.0938C36.75 24.8883 23.2641 33.3211 21 34.6828C19.6383 33.8625 14.2078 30.4992 10.1227 25.8234C10.0661 25.757 9.99679 25.7024 9.91887 25.6631C9.84095 25.6237 9.75596 25.6003 9.66887 25.5942C9.58178 25.5881 9.49435 25.5994 9.41169 25.6275C9.32904 25.6556 9.25282 25.6999 9.1875 25.7578C9.06175 25.8739 8.98496 26.0335 8.97277 26.2042C8.96058 26.3749 9.0139 26.5438 9.12188 26.6766C13.9781 32.2219 20.4094 35.8641 20.6719 36.0117C20.7731 36.0649 20.8857 36.0927 21 36.0927C21.1143 36.0927 21.2269 36.0649 21.3281 36.0117C24.2922 34.2645 27.0781 32.2314 29.6461 29.9414C35.2242 24.9047 38.0625 19.9172 38.0625 15.0938C38.0625 12.6571 37.0945 10.3202 35.3715 8.59721C33.6486 6.87422 31.3117 5.90626 28.875 5.90626Z" fill="black"/>
</g>
<defs>
<clipPath id="clip0_3_371">
<rect width="42" height="42" fill="white"/>
</clipPath>
</defs>
</svg>
