<?xml version="1.0" encoding="UTF-8"?>
<!--Generator: CustomSymbols by @serious_bret-->
<!DOCTYPE svg
PUBLIC "-//W3C//DTD SVG 1.1//EN"
       "http://www.w3.org/Graphics/SVG/1.1/DTD/svg11.dtd">
<svg version="1.1" xmlns="http://www.w3.org/2000/svg" xmlns:xlink="http://www.w3.org/1999/xlink" width="3300" height="2200">
 <g id="Notes">
  <rect height="2200" id="artboard" style="fill:white;opacity:1" width="3300" x="0" y="0"/>
  <line id="" style="fill:none;stroke:black;opacity:1;stroke-width:0.5;" x1="263" x2="3036" y1="292" y2="292"/>
  <text id="reftext1" style="stroke:none;fill:black;font-family:-apple-system,&quot;SF Pro Display&quot;,&quot;SF Pro Text&quot;,Helvetica,sans-serif;font-weight:bold;" transform="matrix(1 0 0 1 263 322)">Weight/Scale Variations</text>
  <text id="reftext2" style="stroke:none;fill:black;font-family:-apple-system,&quot;SF Pro Display&quot;,&quot;SF Pro Text&quot;,Helvetica,sans-serif;text-anchor:middle;" transform="matrix(1 0 0 1 559.711 322)">Ultralight</text>
  <text style="stroke:none;fill:black;font-family:-apple-system,&quot;SF Pro Display&quot;,&quot;SF Pro Text&quot;,Helvetica,sans-serif;text-anchor:middle;" transform="matrix(1 0 0 1 856.422 322)">Thin</text>
  <text style="stroke:none;fill:black;font-family:-apple-system,&quot;SF Pro Display&quot;,&quot;SF Pro Text&quot;,Helvetica,sans-serif;text-anchor:middle;" transform="matrix(1 0 0 1 1153.13 322)">Light</text>
  <text style="stroke:none;fill:black;font-family:-apple-system,&quot;SF Pro Display&quot;,&quot;SF Pro Text&quot;,Helvetica,sans-serif;text-anchor:middle;" transform="matrix(1 0 0 1 1449.84 322)">Regular</text>
  <text style="stroke:none;fill:black;font-family:-apple-system,&quot;SF Pro Display&quot;,&quot;SF Pro Text&quot;,Helvetica,sans-serif;text-anchor:middle;" transform="matrix(1 0 0 1 1746.56 322)">Medium</text>
  <text style="stroke:none;fill:black;font-family:-apple-system,&quot;SF Pro Display&quot;,&quot;SF Pro Text&quot;,Helvetica,sans-serif;text-anchor:middle;" transform="matrix(1 0 0 1 2043.27 322)">Semibold</text>
  <text style="stroke:none;fill:black;font-family:-apple-system,&quot;SF Pro Display&quot;,&quot;SF Pro Text&quot;,Helvetica,sans-serif;text-anchor:middle;" transform="matrix(1 0 0 1 2339.98 322)">Bold</text>
  <text style="stroke:none;fill:black;font-family:-apple-system,&quot;SF Pro Display&quot;,&quot;SF Pro Text&quot;,Helvetica,sans-serif;text-anchor:middle;" transform="matrix(1 0 0 1 2636.69 322)">Heavy</text>
  <text style="stroke:none;fill:black;font-family:-apple-system,&quot;SF Pro Display&quot;,&quot;SF Pro Text&quot;,Helvetica,sans-serif;text-anchor:middle;" transform="matrix(1 0 0 1 2933.4 322)">Black</text>
  <line id="" style="fill:none;stroke:black;opacity:1;stroke-width:0.5;" x1="263" x2="3036" y1="1903" y2="1903"/>
  <g id="" transform="matrix(1 0 0 1 263 1933)">
   <path d="M9.24805 0.830078C13.5547 0.830078 17.1387-2.74414 17.1387-7.05078C17.1387-11.3574 13.5449-14.9316 9.23828-14.9316C4.94141-14.9316 1.36719-11.3574 1.36719-7.05078C1.36719-2.74414 4.95117 0.830078 9.24805 0.830078ZM9.24805-0.654297C5.70312-0.654297 2.87109-3.49609 2.87109-7.05078C2.87109-10.6055 5.69336-13.4473 9.23828-13.4473C12.793-13.4473 15.6348-10.6055 15.6445-7.05078C15.6543-3.49609 12.8027-0.654297 9.24805-0.654297ZM6.39648-6.31836L8.50586-6.31836L8.50586-4.19922C8.50586-3.75977 8.79883-3.45703 9.22852-3.45703C9.67773-3.45703 9.9707-3.75977 9.9707-4.19922L9.9707-6.31836L12.0996-6.31836C12.5391-6.31836 12.8418-6.61133 12.8418-7.04102C12.8418-7.48047 12.5391-7.7832 12.0996-7.7832L9.9707-7.7832L9.9707-9.89258C9.9707-10.3418 9.67773-10.6445 9.22852-10.6445C8.79883-10.6445 8.50586-10.3418 8.50586-9.89258L8.50586-7.7832L6.39648-7.7832C5.94727-7.7832 5.64453-7.48047 5.64453-7.04102C5.64453-6.61133 5.94727-6.31836 6.39648-6.31836Z"/>
  </g>
  <g id="" transform="matrix(1 0 0 1 281.506 1933)">
   <path d="M11.709 2.91016C17.1582 2.91016 21.6699-1.61133 21.6699-7.05078C21.6699-12.5 17.1484-17.0117 11.6992-17.0117C6.25977-17.0117 1.74805-12.5 1.74805-7.05078C1.74805-1.61133 6.26953 2.91016 11.709 2.91016ZM11.709 1.25C7.09961 1.25 3.41797-2.44141 3.41797-7.05078C3.41797-11.6602 7.08984-15.3516 11.6992-15.3516C16.3086-15.3516 20-11.6602 20.0098-7.05078C20.0195-2.44141 16.3184 1.25 11.709 1.25ZM7.98828-6.23047L10.8789-6.23047L10.8789-3.32031C10.8789-2.83203 11.2109-2.5 11.6895-2.5C12.1777-2.5 12.5195-2.83203 12.5195-3.32031L12.5195-6.23047L15.4297-6.23047C15.918-6.23047 16.25-6.5625 16.25-7.04102C16.25-7.5293 15.918-7.87109 15.4297-7.87109L12.5195-7.87109L12.5195-10.7617C12.5195-11.2695 12.1777-11.6016 11.6895-11.6016C11.2109-11.6016 10.8789-11.2598 10.8789-10.7617L10.8789-7.87109L7.98828-7.87109C7.48047-7.87109 7.14844-7.5293 7.14844-7.04102C7.14844-6.5625 7.49023-6.23047 7.98828-6.23047Z"/>
  </g>
  <g id="" transform="matrix(1 0 0 1 304.924 1933)">
   <path d="M14.9707 5.66406C21.9336 5.66406 27.6953-0.0976562 27.6953-7.05078C27.6953-14.0137 21.9238-19.7754 14.9609-19.7754C8.00781-19.7754 2.25586-14.0137 2.25586-7.05078C2.25586-0.0976562 8.01758 5.66406 14.9707 5.66406ZM14.9707 3.84766C8.93555 3.84766 4.08203-1.01562 4.08203-7.05078C4.08203-13.0957 8.92578-17.9492 14.9609-17.9492C21.0059-17.9492 25.8594-13.0957 25.8691-7.05078C25.8789-1.01562 21.0156 3.84766 14.9707 3.84766ZM10.0586-6.14258L14.0625-6.14258L14.0625-2.12891C14.0625-1.5918 14.4336-1.2207 14.9512-1.2207C15.4883-1.2207 15.8594-1.5918 15.8594-2.12891L15.8594-6.14258L19.8828-6.14258C20.4102-6.14258 20.791-6.51367 20.791-7.03125C20.791-7.56836 20.4199-7.94922 19.8828-7.94922L15.8594-7.94922L15.8594-11.9531C15.8594-12.5098 15.4883-12.8809 14.9512-12.8809C14.4336-12.8809 14.0625-12.5 14.0625-11.9531L14.0625-7.94922L10.0586-7.94922C9.50195-7.94922 9.13086-7.56836 9.13086-7.03125C9.13086-6.51367 9.51172-6.14258 10.0586-6.14258Z"/>
  </g>
  <text style="stroke:none;fill:black;font-family:-apple-system,&quot;SF Pro Display&quot;,&quot;SF Pro Text&quot;,Helvetica,sans-serif;font-weight:bold;" transform="matrix(1 0 0 1 263 1953)">Design Variations</text>
  <text style="stroke:none;fill:black;font-family:-apple-system,&quot;SF Pro Display&quot;,&quot;SF Pro Text&quot;,Helvetica,sans-serif;" transform="matrix(1 0 0 1 263 1971)">Symbols are supported in up to nine weights and three scales.</text>
  <text style="stroke:none;fill:black;font-family:-apple-system,&quot;SF Pro Display&quot;,&quot;SF Pro Text&quot;,Helvetica,sans-serif;" transform="matrix(1 0 0 1 263 1989)">For optimal layout with text and other symbols, vertically align</text>
  <text style="stroke:none;fill:black;font-family:-apple-system,&quot;SF Pro Display&quot;,&quot;SF Pro Text&quot;,Helvetica,sans-serif;" transform="matrix(1 0 0 1 263 2007)">symbols with the adjacent text.</text>
  <line id="" style="fill:none;stroke:#00AEEF;stroke-width:0.5;opacity:1.0;" x1="776" x2="776" y1="1919" y2="1933"/>
  <g id="" transform="matrix(1 0 0 1 776 1933)">
   <path d="M3.31055 0.126953C3.82812 0.126953 4.08203-0.0683594 4.26758-0.605469L5.52734-4.0625L11.2891-4.0625L12.5488-0.605469C12.7344-0.0683594 12.9883 0.126953 13.4961 0.126953C14.0137 0.126953 14.3457-0.185547 14.3457-0.673828C14.3457-0.839844 14.3164-0.986328 14.2383-1.20117L9.6582-13.3887C9.43359-13.9941 9.0332-14.2871 8.4082-14.2871C7.80273-14.2871 7.39258-13.9941 7.17773-13.3984L2.59766-1.19141C2.51953-0.976562 2.49023-0.830078 2.49023-0.664062C2.49023-0.175781 2.80273 0.126953 3.31055 0.126953ZM6.00586-5.53711L8.37891-12.1094L8.42773-12.1094L10.8008-5.53711Z"/>
  </g>
  <line id="" style="fill:none;stroke:#00AEEF;stroke-width:0.5;opacity:1.0;" x1="792.836" x2="792.836" y1="1919" y2="1933"/>
  <text style="stroke:none;fill:black;font-family:-apple-system,&quot;SF Pro Display&quot;,&quot;SF Pro Text&quot;,Helvetica,sans-serif;font-weight:bold;" transform="matrix(1 0 0 1 776 1953)">Margins</text>
  <text style="stroke:none;fill:black;font-family:-apple-system,&quot;SF Pro Display&quot;,&quot;SF Pro Text&quot;,Helvetica,sans-serif;" transform="matrix(1 0 0 1 776 1971)">Leading and trailing margins on the left and right side of each symbol</text>
  <text style="stroke:none;fill:black;font-family:-apple-system,&quot;SF Pro Display&quot;,&quot;SF Pro Text&quot;,Helvetica,sans-serif;" transform="matrix(1 0 0 1 776 1989)">can be adjusted by modifying the x-location of the margin guidelines.</text>
  <text style="stroke:none;fill:black;font-family:-apple-system,&quot;SF Pro Display&quot;,&quot;SF Pro Text&quot;,Helvetica,sans-serif;" transform="matrix(1 0 0 1 776 2007)">Modifications are automatically applied proportionally to all</text>
  <text style="stroke:none;fill:black;font-family:-apple-system,&quot;SF Pro Display&quot;,&quot;SF Pro Text&quot;,Helvetica,sans-serif;" transform="matrix(1 0 0 1 776 2025)">scales and weights.</text>
  <g id="" transform="matrix(1 0 0 1 1289 1933)">
   <path d="M2.8418 1.86523L4.54102 3.57422C5.40039 4.44336 6.38672 4.38477 7.31445 3.35938L17.4902-7.85156C17.7539-7.76367 18.0273-7.7832 18.3398-7.8418L19.4043-8.03711L20.0684-7.36328L20.0293-6.80664C19.9902-6.30859 20.1172-5.92773 20.6055-5.44922L21.3672-4.70703C21.8457-4.22852 22.4609-4.19922 22.9297-4.66797L25.8398-7.58789C26.3086-8.05664 26.2891-8.65234 25.8105-9.13086L25.0391-9.89258C24.5605-10.3711 24.1895-10.5273 23.7109-10.4883L23.1348-10.4395L22.4902-11.0742L22.7344-12.1973C22.8613-12.7637 22.7051-13.2031 22.1191-13.7891L19.9219-15.9766C16.582-19.2969 12.1484-19.2188 9.25781-16.3281C8.83789-15.918 8.80859-15.3418 9.04297-14.9512C9.27734-14.5898 9.73633-14.3555 10.3809-14.5215C11.8457-14.8633 13.3691-14.9219 14.7949-13.9844L14.209-12.5293C14.0137-12.0508 13.9844-11.6504 14.1113-11.2891L3.04688-0.898438C2.06055 0.0195312 1.98242 0.996094 2.8418 1.86523ZM10.752-15.957C13.1836-17.7344 16.4746-17.4316 18.7012-15.2051L21.1328-12.793C21.3672-12.5586 21.4062-12.373 21.3379-12.0312L21.0156-10.5469L22.5195-9.0625L23.5059-9.12109C23.7598-9.13086 23.8379-9.11133 24.0332-8.91602L24.6094-8.33984L22.168-5.89844L21.5918-6.47461C21.3965-6.66992 21.3672-6.74805 21.377-7.01172L21.4453-7.98828L19.9512-9.47266L18.4277-9.21875C18.1055-9.15039 17.959-9.17969 17.7148-9.41406L15.7129-11.416C15.459-11.6504 15.4297-11.8164 15.5859-12.1875L16.4648-14.2773C14.9023-15.7324 12.8711-16.3574 10.8398-15.7617C10.6836-15.7227 10.625-15.8496 10.752-15.957ZM5.27344 2.30469L4.10156 1.14258C3.63281 0.683594 3.74023 0.341797 4.14062-0.0195312L14.9512-10.1953L16.416-8.71094L6.42578 2.27539C6.07422 2.67578 5.74219 2.77344 5.27344 2.30469Z"/>
  </g>
  <text style="stroke:none;fill:black;font-family:-apple-system,&quot;SF Pro Display&quot;,&quot;SF Pro Text&quot;,Helvetica,sans-serif;font-weight:bold;" transform="matrix(1 0 0 1 1289 1953)">Exporting</text>
  <text style="stroke:none;fill:black;font-family:-apple-system,&quot;SF Pro Display&quot;,&quot;SF Pro Text&quot;,Helvetica,sans-serif;" transform="matrix(1 0 0 1 1289 1971)">Symbols should be outlined when exporting to ensure the</text>
  <text style="stroke:none;fill:black;font-family:-apple-system,&quot;SF Pro Display&quot;,&quot;SF Pro Text&quot;,Helvetica,sans-serif;" transform="matrix(1 0 0 1 1289 1989)">design is preserved when submitting to Xcode.</text>
  <text id="template-version" style="stroke:none;fill:black;font-family:-apple-system,&quot;SF Pro Display&quot;,&quot;SF Pro Text&quot;,Helvetica,sans-serif;text-anchor:end;" transform="matrix(1 0 0 1 3036 1933)">Template v.2.0</text>
  <text style="stroke:none;fill:black;font-family:-apple-system,&quot;SF Pro Display&quot;,&quot;SF Pro Text&quot;,Helvetica,sans-serif;text-anchor:end;" transform="matrix(1 0 0 1 3036 1951)">Requires Xcode 12 or greater</text>
  <text style="stroke:none;fill:black;font-family:-apple-system,&quot;SF Pro Display&quot;,&quot;SF Pro Text&quot;,Helvetica,sans-serif;" transform="matrix(1 0 0 1 263 726)">Small</text>
  <text style="stroke:none;fill:black;font-family:-apple-system,&quot;SF Pro Display&quot;,&quot;SF Pro Text&quot;,Helvetica,sans-serif;" transform="matrix(1 0 0 1 263 1156)">Medium</text>
  <text style="stroke:none;fill:black;font-family:-apple-system,&quot;SF Pro Display&quot;,&quot;SF Pro Text&quot;,Helvetica,sans-serif;" transform="matrix(1 0 0 1 263 1586)">Large</text>
 </g>
 <g id="Guides">
  <g id="H-reference" style="fill:#27AAE1;stroke:none;" transform="matrix(1 0 0 1 339 696)">
   <path d="M0.976562 0L3.66211 0L12.9883-24.4629L45.752-24.4629L55.127 0L57.7637 0L30.6152-70.459L28.125-70.459ZM29.3457-67.1387L29.4434-67.1387L44.873-26.709L13.8672-26.709Z"/>
  </g>
  <line id="Baseline-S" style="fill:none;stroke:#27AAE1;opacity:1;stroke-width:0.5;" x1="263" x2="3036" y1="696" y2="696"/>
  <line id="Capline-S" style="fill:none;stroke:#27AAE1;opacity:1;stroke-width:0.5;" x1="263" x2="3036" y1="625.541" y2="625.541"/>
  <g id="H-reference" style="fill:#27AAE1;stroke:none;" transform="matrix(1 0 0 1 339 1126)">
   <path d="M0.976562 0L3.66211 0L12.9883-24.4629L45.752-24.4629L55.127 0L57.7637 0L30.6152-70.459L28.125-70.459ZM29.3457-67.1387L29.4434-67.1387L44.873-26.709L13.8672-26.709Z"/>
  </g>
  <line id="Baseline-M" style="fill:none;stroke:#27AAE1;opacity:1;stroke-width:0.5;" x1="263" x2="3036" y1="1126" y2="1126"/>
  <line id="Capline-M" style="fill:none;stroke:#27AAE1;opacity:1;stroke-width:0.5;" x1="263" x2="3036" y1="1055.54" y2="1055.54"/>
  <g id="H-reference" style="fill:#27AAE1;stroke:none;" transform="matrix(1 0 0 1 339 1556)">
   <path d="M0.976562 0L3.66211 0L12.9883-24.4629L45.752-24.4629L55.127 0L57.7637 0L30.6152-70.459L28.125-70.459ZM29.3457-67.1387L29.4434-67.1387L44.873-26.709L13.8672-26.709Z"/>
  </g>
  <line id="Baseline-L" style="fill:none;stroke:#27AAE1;opacity:1;stroke-width:0.5;" x1="263" x2="3036" y1="1556" y2="1556"/>
  <line id="Capline-L" style="fill:none;stroke:#27AAE1;opacity:1;stroke-width:0.5;" x1="263" x2="3036" y1="1485.54" y2="1485.54"/>
  <line id="left-margin" x1="1385.6100363238006" x2="1385.6100363238006" y1="1030.79" y2="1150.12" style="fill:none;stroke:#00AEEF;stroke-width:0.5;opacity:1.0;"/>
  <line id="right-margin" x1="1516.6499636761991" x2="1516.6499636761991" y1="1030.79" y2="1150.12" style="fill:none;stroke:#00AEEF;stroke-width:0.5;opacity:1.0;"/>
 </g>
 <g id="Symbols">
  <g id="Black-L" transform="matrix(1.0,0.0,0.0,1.0,2850.830046485816,1436.9200660170663)">  <path fill="#000000" stroke-linecap="butt" xml:space="preserve" fill-opacity="1" stroke-width="1px" stroke-miterlimit="4" stroke="none" version="1.1" stroke-dasharray="none" stroke-linejoin="miter" xmlns:xlink="http://www.w3.org/1999/xlink" y="0px" stroke-opacity="1" fill-rule="nonzero" x="0px" d="M164.948,71.556L155.496,71.556L155.496,58.809C155.496,57.324,154.265,56.093,152.78,56.093L137.463,56.093L137.463,43.31C137.463,41.825,136.231,40.594,134.747,40.594L116.713,40.594C115.228,40.594,113.997,41.825,113.997,43.31L113.997,71.556L53.196,71.556L53.196,43.31C53.196,41.825,51.965,40.594,50.48,40.594L32.446,40.594C30.962,40.594,29.73,41.825,29.73,43.31L29.73,56.057L14.413,56.057C12.928,56.057,11.697,57.288,11.697,58.773L11.697,71.52L2.716,71.52C1.231,71.52,0,72.751,0,74.236L0,92.994C0,94.478,1.231,95.71,2.716,95.71L11.733,95.71L11.733,108.927C11.733,110.412,12.964,111.643,14.449,111.643L29.767,111.643L29.767,124.39C29.767,125.875,30.998,127.106,32.483,127.106L50.516,127.106C52.001,127.106,53.232,125.875,53.232,124.39L53.232,95.673L114.033,95.673L114.033,124.39C114.033,125.875,115.264,127.106,116.749,127.106L134.783,127.106C136.267,127.106,137.499,125.875,137.499,124.39L137.499,111.643L152.817,111.643C154.301,111.643,155.533,110.412,155.533,108.927L155.533,95.71L164.984,95.71C166.469,95.71,167.7,94.478,167.7,92.994L167.7,74.236C167.664,72.751,166.432,71.556,164.948,71.556ZM11.733,90.314L5.432,90.314L5.432,90.278L5.432,76.988L11.733,76.988L11.733,90.314ZM29.767,106.247L17.165,106.247L17.165,61.525L29.767,61.525L29.767,106.247ZM47.764,121.71L35.162,121.71L35.162,46.026L47.764,46.026L47.764,121.71ZM113.997,90.314L53.196,90.314L53.196,90.278L53.196,76.988L113.997,76.988L113.997,90.314ZM132.031,121.71L119.429,121.71L119.429,46.026L132.031,46.026L132.031,121.71ZM150.064,106.247L137.462,106.247L137.462,61.525L150.064,61.525L150.064,106.247ZM162.232,90.278L155.496,90.278L155.496,76.988L162.232,76.988L162.232,90.278ZM162.232,90.278"/>
</g>
  <g id="Heavy-L" transform="matrix(1.0,0.0,0.0,1.0,2554.120046485816,1436.9200660170663)">  <path version="1.1" xmlns:xlink="http://www.w3.org/1999/xlink" stroke-width="1px" stroke-miterlimit="4" stroke="none" y="0px" stroke-opacity="1" stroke-dasharray="none" stroke-linecap="butt" fill-rule="nonzero" fill="#000000" fill-opacity="1" x="0px" stroke-linejoin="miter" xml:space="preserve" d="M164.948,71.556L155.496,71.556L155.496,58.809C155.496,57.324,154.265,56.093,152.78,56.093L137.463,56.093L137.463,43.31C137.463,41.825,136.231,40.594,134.747,40.594L116.713,40.594C115.228,40.594,113.997,41.825,113.997,43.31L113.997,71.556L53.196,71.556L53.196,43.31C53.196,41.825,51.965,40.594,50.48,40.594L32.446,40.594C30.962,40.594,29.73,41.825,29.73,43.31L29.73,56.057L14.413,56.057C12.928,56.057,11.697,57.288,11.697,58.773L11.697,71.52L2.716,71.52C1.231,71.52,0,72.751,0,74.236L0,92.994C0,94.478,1.231,95.71,2.716,95.71L11.733,95.71L11.733,108.927C11.733,110.412,12.964,111.643,14.449,111.643L29.767,111.643L29.767,124.39C29.767,125.875,30.998,127.106,32.483,127.106L50.516,127.106C52.001,127.106,53.232,125.875,53.232,124.39L53.232,95.673L114.033,95.673L114.033,124.39C114.033,125.875,115.264,127.106,116.749,127.106L134.783,127.106C136.267,127.106,137.499,125.875,137.499,124.39L137.499,111.643L152.817,111.643C154.301,111.643,155.533,110.412,155.533,108.927L155.533,95.71L164.984,95.71C166.469,95.71,167.7,94.478,167.7,92.994L167.7,74.236C167.664,72.751,166.432,71.556,164.948,71.556ZM11.733,90.314L5.432,90.314L5.432,90.278L5.432,76.988L11.733,76.988L11.733,90.314ZM29.767,106.247L17.165,106.247L17.165,61.525L29.767,61.525L29.767,106.247ZM47.764,121.71L35.162,121.71L35.162,46.026L47.764,46.026L47.764,121.71ZM113.997,90.314L53.196,90.314L53.196,90.278L53.196,76.988L113.997,76.988L113.997,90.314ZM132.031,121.71L119.429,121.71L119.429,46.026L132.031,46.026L132.031,121.71ZM150.064,106.247L137.462,106.247L137.462,61.525L150.064,61.525L150.064,106.247ZM162.232,90.278L155.496,90.278L155.496,76.988L162.232,76.988L162.232,90.278ZM162.232,90.278"/>
</g>
  <g id="Bold-L" transform="matrix(1.0,0.0,0.0,1.0,2257.410046485816,1436.9200660170663)">  <path xml:space="preserve" stroke-linejoin="miter" fill-rule="nonzero" stroke="none" stroke-linecap="butt" stroke-dasharray="none" stroke-miterlimit="4" stroke-width="1px" y="0px" x="0px" fill-opacity="1" stroke-opacity="1" version="1.1" fill="#000000" xmlns:xlink="http://www.w3.org/1999/xlink" d="M164.948,71.556L155.496,71.556L155.496,58.809C155.496,57.324,154.265,56.093,152.78,56.093L137.463,56.093L137.463,43.31C137.463,41.825,136.231,40.594,134.747,40.594L116.713,40.594C115.228,40.594,113.997,41.825,113.997,43.31L113.997,71.556L53.196,71.556L53.196,43.31C53.196,41.825,51.965,40.594,50.48,40.594L32.446,40.594C30.962,40.594,29.73,41.825,29.73,43.31L29.73,56.057L14.413,56.057C12.928,56.057,11.697,57.288,11.697,58.773L11.697,71.52L2.716,71.52C1.231,71.52,0,72.751,0,74.236L0,92.994C0,94.478,1.231,95.71,2.716,95.71L11.733,95.71L11.733,108.927C11.733,110.412,12.964,111.643,14.449,111.643L29.767,111.643L29.767,124.39C29.767,125.875,30.998,127.106,32.483,127.106L50.516,127.106C52.001,127.106,53.232,125.875,53.232,124.39L53.232,95.673L114.033,95.673L114.033,124.39C114.033,125.875,115.264,127.106,116.749,127.106L134.783,127.106C136.267,127.106,137.499,125.875,137.499,124.39L137.499,111.643L152.817,111.643C154.301,111.643,155.533,110.412,155.533,108.927L155.533,95.71L164.984,95.71C166.469,95.71,167.7,94.478,167.7,92.994L167.7,74.236C167.664,72.751,166.432,71.556,164.948,71.556ZM11.733,90.314L5.432,90.314L5.432,90.278L5.432,76.988L11.733,76.988L11.733,90.314ZM29.767,106.247L17.165,106.247L17.165,61.525L29.767,61.525L29.767,106.247ZM47.764,121.71L35.162,121.71L35.162,46.026L47.764,46.026L47.764,121.71ZM113.997,90.314L53.196,90.314L53.196,90.278L53.196,76.988L113.997,76.988L113.997,90.314ZM132.031,121.71L119.429,121.71L119.429,46.026L132.031,46.026L132.031,121.71ZM150.064,106.247L137.462,106.247L137.462,61.525L150.064,61.525L150.064,106.247ZM162.232,90.278L155.496,90.278L155.496,76.988L162.232,76.988L162.232,90.278ZM162.232,90.278"/>
</g>
  <g id="Semibold-L" transform="matrix(1.0,0.0,0.0,1.0,1960.7000464858163,1436.9200660170663)">  <path x="0px" xmlns:xlink="http://www.w3.org/1999/xlink" y="0px" fill-rule="nonzero" stroke-dasharray="none" stroke-linejoin="miter" stroke-width="1px" version="1.1" fill="#000000" stroke-linecap="butt" fill-opacity="1" xml:space="preserve" stroke-opacity="1" stroke="none" stroke-miterlimit="4" d="M164.948,71.556L155.496,71.556L155.496,58.809C155.496,57.324,154.265,56.093,152.78,56.093L137.463,56.093L137.463,43.31C137.463,41.825,136.231,40.594,134.747,40.594L116.713,40.594C115.228,40.594,113.997,41.825,113.997,43.31L113.997,71.556L53.196,71.556L53.196,43.31C53.196,41.825,51.965,40.594,50.48,40.594L32.446,40.594C30.962,40.594,29.73,41.825,29.73,43.31L29.73,56.057L14.413,56.057C12.928,56.057,11.697,57.288,11.697,58.773L11.697,71.52L2.716,71.52C1.231,71.52,0,72.751,0,74.236L0,92.994C0,94.478,1.231,95.71,2.716,95.71L11.733,95.71L11.733,108.927C11.733,110.412,12.964,111.643,14.449,111.643L29.767,111.643L29.767,124.39C29.767,125.875,30.998,127.106,32.483,127.106L50.516,127.106C52.001,127.106,53.232,125.875,53.232,124.39L53.232,95.673L114.033,95.673L114.033,124.39C114.033,125.875,115.264,127.106,116.749,127.106L134.783,127.106C136.267,127.106,137.499,125.875,137.499,124.39L137.499,111.643L152.817,111.643C154.301,111.643,155.533,110.412,155.533,108.927L155.533,95.71L164.984,95.71C166.469,95.71,167.7,94.478,167.7,92.994L167.7,74.236C167.664,72.751,166.432,71.556,164.948,71.556ZM11.733,90.314L5.432,90.314L5.432,90.278L5.432,76.988L11.733,76.988L11.733,90.314ZM29.767,106.247L17.165,106.247L17.165,61.525L29.767,61.525L29.767,106.247ZM47.764,121.71L35.162,121.71L35.162,46.026L47.764,46.026L47.764,121.71ZM113.997,90.314L53.196,90.314L53.196,90.278L53.196,76.988L113.997,76.988L113.997,90.314ZM132.031,121.71L119.429,121.71L119.429,46.026L132.031,46.026L132.031,121.71ZM150.064,106.247L137.462,106.247L137.462,61.525L150.064,61.525L150.064,106.247ZM162.232,90.278L155.496,90.278L155.496,76.988L162.232,76.988L162.232,90.278ZM162.232,90.278"/>
</g>
  <g id="Medium-L" transform="matrix(1.0,0.0,0.0,1.0,1663.9900464858163,1436.9200660170663)">  <path stroke="none" xmlns:xlink="http://www.w3.org/1999/xlink" fill="#000000" stroke-dasharray="none" stroke-miterlimit="4" y="0px" stroke-width="1px" stroke-opacity="1" stroke-linecap="butt" xml:space="preserve" fill-opacity="1" x="0px" version="1.1" fill-rule="nonzero" stroke-linejoin="miter" d="M164.948,71.556L155.496,71.556L155.496,58.809C155.496,57.324,154.265,56.093,152.78,56.093L137.463,56.093L137.463,43.31C137.463,41.825,136.231,40.594,134.747,40.594L116.713,40.594C115.228,40.594,113.997,41.825,113.997,43.31L113.997,71.556L53.196,71.556L53.196,43.31C53.196,41.825,51.965,40.594,50.48,40.594L32.446,40.594C30.962,40.594,29.73,41.825,29.73,43.31L29.73,56.057L14.413,56.057C12.928,56.057,11.697,57.288,11.697,58.773L11.697,71.52L2.716,71.52C1.231,71.52,0,72.751,0,74.236L0,92.994C0,94.478,1.231,95.71,2.716,95.71L11.733,95.71L11.733,108.927C11.733,110.412,12.964,111.643,14.449,111.643L29.767,111.643L29.767,124.39C29.767,125.875,30.998,127.106,32.483,127.106L50.516,127.106C52.001,127.106,53.232,125.875,53.232,124.39L53.232,95.673L114.033,95.673L114.033,124.39C114.033,125.875,115.264,127.106,116.749,127.106L134.783,127.106C136.267,127.106,137.499,125.875,137.499,124.39L137.499,111.643L152.817,111.643C154.301,111.643,155.533,110.412,155.533,108.927L155.533,95.71L164.984,95.71C166.469,95.71,167.7,94.478,167.7,92.994L167.7,74.236C167.664,72.751,166.432,71.556,164.948,71.556ZM11.733,90.314L5.432,90.314L5.432,90.278L5.432,76.988L11.733,76.988L11.733,90.314ZM29.767,106.247L17.165,106.247L17.165,61.525L29.767,61.525L29.767,106.247ZM47.764,121.71L35.162,121.71L35.162,46.026L47.764,46.026L47.764,121.71ZM113.997,90.314L53.196,90.314L53.196,90.278L53.196,76.988L113.997,76.988L113.997,90.314ZM132.031,121.71L119.429,121.71L119.429,46.026L132.031,46.026L132.031,121.71ZM150.064,106.247L137.462,106.247L137.462,61.525L150.064,61.525L150.064,106.247ZM162.232,90.278L155.496,90.278L155.496,76.988L162.232,76.988L162.232,90.278ZM162.232,90.278"/>
</g>
  <g id="Regular-L" transform="matrix(1.0,0.0,0.0,1.0,1367.2800464858162,1436.9200660170663)">  <path x="0px" xml:space="preserve" version="1.1" stroke-miterlimit="4" stroke-dasharray="none" fill="#000000" stroke="none" stroke-opacity="1" stroke-linejoin="miter" y="0px" stroke-width="1px" fill-opacity="1" xmlns:xlink="http://www.w3.org/1999/xlink" stroke-linecap="butt" fill-rule="nonzero" d="M164.948,71.556L155.496,71.556L155.496,58.809C155.496,57.324,154.265,56.093,152.78,56.093L137.463,56.093L137.463,43.31C137.463,41.825,136.231,40.594,134.747,40.594L116.713,40.594C115.228,40.594,113.997,41.825,113.997,43.31L113.997,71.556L53.196,71.556L53.196,43.31C53.196,41.825,51.965,40.594,50.48,40.594L32.446,40.594C30.962,40.594,29.73,41.825,29.73,43.31L29.73,56.057L14.413,56.057C12.928,56.057,11.697,57.288,11.697,58.773L11.697,71.52L2.716,71.52C1.231,71.52,0,72.751,0,74.236L0,92.994C0,94.478,1.231,95.71,2.716,95.71L11.733,95.71L11.733,108.927C11.733,110.412,12.964,111.643,14.449,111.643L29.767,111.643L29.767,124.39C29.767,125.875,30.998,127.106,32.483,127.106L50.516,127.106C52.001,127.106,53.232,125.875,53.232,124.39L53.232,95.673L114.033,95.673L114.033,124.39C114.033,125.875,115.264,127.106,116.749,127.106L134.783,127.106C136.267,127.106,137.499,125.875,137.499,124.39L137.499,111.643L152.817,111.643C154.301,111.643,155.533,110.412,155.533,108.927L155.533,95.71L164.984,95.71C166.469,95.71,167.7,94.478,167.7,92.994L167.7,74.236C167.664,72.751,166.432,71.556,164.948,71.556ZM11.733,90.314L5.432,90.314L5.432,90.278L5.432,76.988L11.733,76.988L11.733,90.314ZM29.767,106.247L17.165,106.247L17.165,61.525L29.767,61.525L29.767,106.247ZM47.764,121.71L35.162,121.71L35.162,46.026L47.764,46.026L47.764,121.71ZM113.997,90.314L53.196,90.314L53.196,90.278L53.196,76.988L113.997,76.988L113.997,90.314ZM132.031,121.71L119.429,121.71L119.429,46.026L132.031,46.026L132.031,121.71ZM150.064,106.247L137.462,106.247L137.462,61.525L150.064,61.525L150.064,106.247ZM162.232,90.278L155.496,90.278L155.496,76.988L162.232,76.988L162.232,90.278ZM162.232,90.278"/>
</g>
  <g id="Light-L" transform="matrix(1.0,0.0,0.0,1.0,1070.5700464858164,1436.9200660170663)">  <path fill="#000000" stroke-linejoin="miter" stroke-miterlimit="4" fill-opacity="1" xmlns:xlink="http://www.w3.org/1999/xlink" stroke-dasharray="none" stroke="none" stroke-opacity="1" xml:space="preserve" stroke-linecap="butt" fill-rule="nonzero" x="0px" stroke-width="1px" version="1.1" y="0px" d="M164.948,71.556L155.496,71.556L155.496,58.809C155.496,57.324,154.265,56.093,152.78,56.093L137.463,56.093L137.463,43.31C137.463,41.825,136.231,40.594,134.747,40.594L116.713,40.594C115.228,40.594,113.997,41.825,113.997,43.31L113.997,71.556L53.196,71.556L53.196,43.31C53.196,41.825,51.965,40.594,50.48,40.594L32.446,40.594C30.962,40.594,29.73,41.825,29.73,43.31L29.73,56.057L14.413,56.057C12.928,56.057,11.697,57.288,11.697,58.773L11.697,71.52L2.716,71.52C1.231,71.52,0,72.751,0,74.236L0,92.994C0,94.478,1.231,95.71,2.716,95.71L11.733,95.71L11.733,108.927C11.733,110.412,12.964,111.643,14.449,111.643L29.767,111.643L29.767,124.39C29.767,125.875,30.998,127.106,32.483,127.106L50.516,127.106C52.001,127.106,53.232,125.875,53.232,124.39L53.232,95.673L114.033,95.673L114.033,124.39C114.033,125.875,115.264,127.106,116.749,127.106L134.783,127.106C136.267,127.106,137.499,125.875,137.499,124.39L137.499,111.643L152.817,111.643C154.301,111.643,155.533,110.412,155.533,108.927L155.533,95.71L164.984,95.71C166.469,95.71,167.7,94.478,167.7,92.994L167.7,74.236C167.664,72.751,166.432,71.556,164.948,71.556ZM11.733,90.314L5.432,90.314L5.432,90.278L5.432,76.988L11.733,76.988L11.733,90.314ZM29.767,106.247L17.165,106.247L17.165,61.525L29.767,61.525L29.767,106.247ZM47.764,121.71L35.162,121.71L35.162,46.026L47.764,46.026L47.764,121.71ZM113.997,90.314L53.196,90.314L53.196,90.278L53.196,76.988L113.997,76.988L113.997,90.314ZM132.031,121.71L119.429,121.71L119.429,46.026L132.031,46.026L132.031,121.71ZM150.064,106.247L137.462,106.247L137.462,61.525L150.064,61.525L150.064,106.247ZM162.232,90.278L155.496,90.278L155.496,76.988L162.232,76.988L162.232,90.278ZM162.232,90.278"/>
</g>
  <g id="Thin-L" transform="matrix(1.0,0.0,0.0,1.0,773.8600464858165,1436.9200660170663)">  <path xmlns:xlink="http://www.w3.org/1999/xlink" stroke-linecap="butt" x="0px" stroke-dasharray="none" stroke="none" stroke-width="1px" fill="#000000" version="1.1" fill-rule="nonzero" stroke-opacity="1" fill-opacity="1" y="0px" stroke-miterlimit="4" stroke-linejoin="miter" xml:space="preserve" d="M164.948,71.556L155.496,71.556L155.496,58.809C155.496,57.324,154.265,56.093,152.78,56.093L137.463,56.093L137.463,43.31C137.463,41.825,136.231,40.594,134.747,40.594L116.713,40.594C115.228,40.594,113.997,41.825,113.997,43.31L113.997,71.556L53.196,71.556L53.196,43.31C53.196,41.825,51.965,40.594,50.48,40.594L32.446,40.594C30.962,40.594,29.73,41.825,29.73,43.31L29.73,56.057L14.413,56.057C12.928,56.057,11.697,57.288,11.697,58.773L11.697,71.52L2.716,71.52C1.231,71.52,0,72.751,0,74.236L0,92.994C0,94.478,1.231,95.71,2.716,95.71L11.733,95.71L11.733,108.927C11.733,110.412,12.964,111.643,14.449,111.643L29.767,111.643L29.767,124.39C29.767,125.875,30.998,127.106,32.483,127.106L50.516,127.106C52.001,127.106,53.232,125.875,53.232,124.39L53.232,95.673L114.033,95.673L114.033,124.39C114.033,125.875,115.264,127.106,116.749,127.106L134.783,127.106C136.267,127.106,137.499,125.875,137.499,124.39L137.499,111.643L152.817,111.643C154.301,111.643,155.533,110.412,155.533,108.927L155.533,95.71L164.984,95.71C166.469,95.71,167.7,94.478,167.7,92.994L167.7,74.236C167.664,72.751,166.432,71.556,164.948,71.556ZM11.733,90.314L5.432,90.314L5.432,90.278L5.432,76.988L11.733,76.988L11.733,90.314ZM29.767,106.247L17.165,106.247L17.165,61.525L29.767,61.525L29.767,106.247ZM47.764,121.71L35.162,121.71L35.162,46.026L47.764,46.026L47.764,121.71ZM113.997,90.314L53.196,90.314L53.196,90.278L53.196,76.988L113.997,76.988L113.997,90.314ZM132.031,121.71L119.429,121.71L119.429,46.026L132.031,46.026L132.031,121.71ZM150.064,106.247L137.462,106.247L137.462,61.525L150.064,61.525L150.064,106.247ZM162.232,90.278L155.496,90.278L155.496,76.988L162.232,76.988L162.232,90.278ZM162.232,90.278"/>
</g>
  <g id="Ultralight-L" transform="matrix(1.0,0.0,0.0,1.0,477.15004648581646,1436.9200660170663)">  <path stroke-width="1px" stroke-dasharray="none" xmlns:xlink="http://www.w3.org/1999/xlink" fill="#000000" stroke-miterlimit="4" stroke-opacity="1" stroke-linejoin="miter" fill-rule="nonzero" xml:space="preserve" fill-opacity="1" y="0px" stroke-linecap="butt" x="0px" version="1.1" stroke="none" d="M164.948,71.556L155.496,71.556L155.496,58.809C155.496,57.324,154.265,56.093,152.78,56.093L137.463,56.093L137.463,43.31C137.463,41.825,136.231,40.594,134.747,40.594L116.713,40.594C115.228,40.594,113.997,41.825,113.997,43.31L113.997,71.556L53.196,71.556L53.196,43.31C53.196,41.825,51.965,40.594,50.48,40.594L32.446,40.594C30.962,40.594,29.73,41.825,29.73,43.31L29.73,56.057L14.413,56.057C12.928,56.057,11.697,57.288,11.697,58.773L11.697,71.52L2.716,71.52C1.231,71.52,0,72.751,0,74.236L0,92.994C0,94.478,1.231,95.71,2.716,95.71L11.733,95.71L11.733,108.927C11.733,110.412,12.964,111.643,14.449,111.643L29.767,111.643L29.767,124.39C29.767,125.875,30.998,127.106,32.483,127.106L50.516,127.106C52.001,127.106,53.232,125.875,53.232,124.39L53.232,95.673L114.033,95.673L114.033,124.39C114.033,125.875,115.264,127.106,116.749,127.106L134.783,127.106C136.267,127.106,137.499,125.875,137.499,124.39L137.499,111.643L152.817,111.643C154.301,111.643,155.533,110.412,155.533,108.927L155.533,95.71L164.984,95.71C166.469,95.71,167.7,94.478,167.7,92.994L167.7,74.236C167.664,72.751,166.432,71.556,164.948,71.556ZM11.733,90.314L5.432,90.314L5.432,90.278L5.432,76.988L11.733,76.988L11.733,90.314ZM29.767,106.247L17.165,106.247L17.165,61.525L29.767,61.525L29.767,106.247ZM47.764,121.71L35.162,121.71L35.162,46.026L47.764,46.026L47.764,121.71ZM113.997,90.314L53.196,90.314L53.196,90.278L53.196,76.988L113.997,76.988L113.997,90.314ZM132.031,121.71L119.429,121.71L119.429,46.026L132.031,46.026L132.031,121.71ZM150.064,106.247L137.462,106.247L137.462,61.525L150.064,61.525L150.064,106.247ZM162.232,90.278L155.496,90.278L155.496,76.988L162.232,76.988L162.232,90.278ZM162.232,90.278"/>
</g>
  <g id="Black-M" transform="matrix(1.0,0.0,0.0,1.0,2869.6800360355164,1025.7700555667666)">  <path fill="#000000" stroke-linecap="butt" xml:space="preserve" fill-opacity="1" stroke-width="1px" stroke-miterlimit="4" stroke="none" version="1.1" stroke-dasharray="none" stroke-linejoin="miter" xmlns:xlink="http://www.w3.org/1999/xlink" y="0px" stroke-opacity="1" fill-rule="nonzero" x="0px" d="M127.866,55.47L120.54,55.47L120.54,45.588C120.54,44.437,119.585,43.483,118.434,43.483L106.56,43.483L106.56,33.574C106.56,32.423,105.606,31.468,104.455,31.468L90.475,31.468C89.324,31.468,88.37,32.423,88.37,33.574L88.37,55.47L41.237,55.47L41.237,33.574C41.237,32.423,40.283,31.468,39.132,31.468L25.152,31.468C24.001,31.468,23.047,32.423,23.047,33.574L23.047,43.455L11.173,43.455C10.022,43.455,9.067,44.409,9.067,45.56L9.067,55.442L2.105,55.442C0.954,55.442,0,56.396,0,57.547L0,72.088C0,73.239,0.954,74.193,2.105,74.193L9.095,74.193L9.095,84.44C9.095,85.591,10.05,86.545,11.201,86.545L23.075,86.545L23.075,96.426C23.075,97.577,24.029,98.532,25.18,98.532L39.16,98.532C40.311,98.532,41.265,97.577,41.265,96.426L41.265,74.165L88.398,74.165L88.398,96.426C88.398,97.577,89.352,98.532,90.503,98.532L104.483,98.532C105.634,98.532,106.588,97.577,106.588,96.426L106.588,86.545L118.462,86.545C119.613,86.545,120.568,85.591,120.568,84.44L120.568,74.193L127.895,74.193C129.045,74.193,130,73.239,130,72.088L130,57.547C129.972,56.396,129.017,55.47,127.866,55.47ZM9.095,70.011L4.211,70.011L4.211,69.983L4.211,59.68L9.095,59.68L9.095,70.011ZM23.075,82.362L13.306,82.362L13.306,47.694L23.075,47.694L23.075,82.362ZM37.027,94.349L27.258,94.349L27.258,35.679L37.027,35.679L37.027,94.349ZM88.37,70.011L41.237,70.011L41.237,69.983L41.237,59.68L88.37,59.68L88.37,70.011ZM102.349,94.349L92.58,94.349L92.58,35.679L102.349,35.679L102.349,94.349ZM116.329,82.362L106.56,82.362L106.56,47.694L116.329,47.694L116.329,82.362ZM125.761,69.983L120.54,69.983L120.54,59.68L125.761,59.68L125.761,69.983ZM125.761,69.983"/>
</g>
  <g id="Heavy-M" transform="matrix(1.0,0.0,0.0,1.0,2572.9700360355164,1025.7700555667666)">  <path version="1.1" xmlns:xlink="http://www.w3.org/1999/xlink" stroke-width="1px" stroke-miterlimit="4" stroke="none" y="0px" stroke-opacity="1" stroke-dasharray="none" stroke-linecap="butt" fill-rule="nonzero" fill="#000000" fill-opacity="1" x="0px" stroke-linejoin="miter" xml:space="preserve" d="M127.866,55.47L120.54,55.47L120.54,45.588C120.54,44.437,119.585,43.483,118.434,43.483L106.56,43.483L106.56,33.574C106.56,32.423,105.606,31.468,104.455,31.468L90.475,31.468C89.324,31.468,88.37,32.423,88.37,33.574L88.37,55.47L41.237,55.47L41.237,33.574C41.237,32.423,40.283,31.468,39.132,31.468L25.152,31.468C24.001,31.468,23.047,32.423,23.047,33.574L23.047,43.455L11.173,43.455C10.022,43.455,9.067,44.409,9.067,45.56L9.067,55.442L2.105,55.442C0.954,55.442,0,56.396,0,57.547L0,72.088C0,73.239,0.954,74.193,2.105,74.193L9.095,74.193L9.095,84.44C9.095,85.591,10.05,86.545,11.201,86.545L23.075,86.545L23.075,96.426C23.075,97.577,24.029,98.532,25.18,98.532L39.16,98.532C40.311,98.532,41.265,97.577,41.265,96.426L41.265,74.165L88.398,74.165L88.398,96.426C88.398,97.577,89.352,98.532,90.503,98.532L104.483,98.532C105.634,98.532,106.588,97.577,106.588,96.426L106.588,86.545L118.462,86.545C119.613,86.545,120.568,85.591,120.568,84.44L120.568,74.193L127.895,74.193C129.045,74.193,130,73.239,130,72.088L130,57.547C129.972,56.396,129.017,55.47,127.866,55.47ZM9.095,70.011L4.211,70.011L4.211,69.983L4.211,59.68L9.095,59.68L9.095,70.011ZM23.075,82.362L13.306,82.362L13.306,47.694L23.075,47.694L23.075,82.362ZM37.027,94.349L27.258,94.349L27.258,35.679L37.027,35.679L37.027,94.349ZM88.37,70.011L41.237,70.011L41.237,69.983L41.237,59.68L88.37,59.68L88.37,70.011ZM102.349,94.349L92.58,94.349L92.58,35.679L102.349,35.679L102.349,94.349ZM116.329,82.362L106.56,82.362L106.56,47.694L116.329,47.694L116.329,82.362ZM125.761,69.983L120.54,69.983L120.54,59.68L125.761,59.68L125.761,69.983ZM125.761,69.983"/>
</g>
  <g id="Bold-M" transform="matrix(1.0,0.0,0.0,1.0,2276.2600360355164,1025.7700555667666)">  <path xml:space="preserve" stroke-linejoin="miter" fill-rule="nonzero" stroke="none" stroke-linecap="butt" stroke-dasharray="none" stroke-miterlimit="4" stroke-width="1px" y="0px" x="0px" fill-opacity="1" stroke-opacity="1" version="1.1" fill="#000000" xmlns:xlink="http://www.w3.org/1999/xlink" d="M127.866,55.47L120.54,55.47L120.54,45.588C120.54,44.437,119.585,43.483,118.434,43.483L106.56,43.483L106.56,33.574C106.56,32.423,105.606,31.468,104.455,31.468L90.475,31.468C89.324,31.468,88.37,32.423,88.37,33.574L88.37,55.47L41.237,55.47L41.237,33.574C41.237,32.423,40.283,31.468,39.132,31.468L25.152,31.468C24.001,31.468,23.047,32.423,23.047,33.574L23.047,43.455L11.173,43.455C10.022,43.455,9.067,44.409,9.067,45.56L9.067,55.442L2.105,55.442C0.954,55.442,0,56.396,0,57.547L0,72.088C0,73.239,0.954,74.193,2.105,74.193L9.095,74.193L9.095,84.44C9.095,85.591,10.05,86.545,11.201,86.545L23.075,86.545L23.075,96.426C23.075,97.577,24.029,98.532,25.18,98.532L39.16,98.532C40.311,98.532,41.265,97.577,41.265,96.426L41.265,74.165L88.398,74.165L88.398,96.426C88.398,97.577,89.352,98.532,90.503,98.532L104.483,98.532C105.634,98.532,106.588,97.577,106.588,96.426L106.588,86.545L118.462,86.545C119.613,86.545,120.568,85.591,120.568,84.44L120.568,74.193L127.895,74.193C129.045,74.193,130,73.239,130,72.088L130,57.547C129.972,56.396,129.017,55.47,127.866,55.47ZM9.095,70.011L4.211,70.011L4.211,69.983L4.211,59.68L9.095,59.68L9.095,70.011ZM23.075,82.362L13.306,82.362L13.306,47.694L23.075,47.694L23.075,82.362ZM37.027,94.349L27.258,94.349L27.258,35.679L37.027,35.679L37.027,94.349ZM88.37,70.011L41.237,70.011L41.237,69.983L41.237,59.68L88.37,59.68L88.37,70.011ZM102.349,94.349L92.58,94.349L92.58,35.679L102.349,35.679L102.349,94.349ZM116.329,82.362L106.56,82.362L106.56,47.694L116.329,47.694L116.329,82.362ZM125.761,69.983L120.54,69.983L120.54,59.68L125.761,59.68L125.761,69.983ZM125.761,69.983"/>
</g>
  <g id="Semibold-M" transform="matrix(1.0,0.0,0.0,1.0,1979.5500360355165,1025.7700555667666)">  <path x="0px" xmlns:xlink="http://www.w3.org/1999/xlink" y="0px" fill-rule="nonzero" stroke-dasharray="none" stroke-linejoin="miter" stroke-width="1px" version="1.1" fill="#000000" stroke-linecap="butt" fill-opacity="1" xml:space="preserve" stroke-opacity="1" stroke="none" stroke-miterlimit="4" d="M127.866,55.47L120.54,55.47L120.54,45.588C120.54,44.437,119.585,43.483,118.434,43.483L106.56,43.483L106.56,33.574C106.56,32.423,105.606,31.468,104.455,31.468L90.475,31.468C89.324,31.468,88.37,32.423,88.37,33.574L88.37,55.47L41.237,55.47L41.237,33.574C41.237,32.423,40.283,31.468,39.132,31.468L25.152,31.468C24.001,31.468,23.047,32.423,23.047,33.574L23.047,43.455L11.173,43.455C10.022,43.455,9.067,44.409,9.067,45.56L9.067,55.442L2.105,55.442C0.954,55.442,0,56.396,0,57.547L0,72.088C0,73.239,0.954,74.193,2.105,74.193L9.095,74.193L9.095,84.44C9.095,85.591,10.05,86.545,11.201,86.545L23.075,86.545L23.075,96.426C23.075,97.577,24.029,98.532,25.18,98.532L39.16,98.532C40.311,98.532,41.265,97.577,41.265,96.426L41.265,74.165L88.398,74.165L88.398,96.426C88.398,97.577,89.352,98.532,90.503,98.532L104.483,98.532C105.634,98.532,106.588,97.577,106.588,96.426L106.588,86.545L118.462,86.545C119.613,86.545,120.568,85.591,120.568,84.44L120.568,74.193L127.895,74.193C129.045,74.193,130,73.239,130,72.088L130,57.547C129.972,56.396,129.017,55.47,127.866,55.47ZM9.095,70.011L4.211,70.011L4.211,69.983L4.211,59.68L9.095,59.68L9.095,70.011ZM23.075,82.362L13.306,82.362L13.306,47.694L23.075,47.694L23.075,82.362ZM37.027,94.349L27.258,94.349L27.258,35.679L37.027,35.679L37.027,94.349ZM88.37,70.011L41.237,70.011L41.237,69.983L41.237,59.68L88.37,59.68L88.37,70.011ZM102.349,94.349L92.58,94.349L92.58,35.679L102.349,35.679L102.349,94.349ZM116.329,82.362L106.56,82.362L106.56,47.694L116.329,47.694L116.329,82.362ZM125.761,69.983L120.54,69.983L120.54,59.68L125.761,59.68L125.761,69.983ZM125.761,69.983"/>
</g>
  <g id="Medium-M" transform="matrix(1.0,0.0,0.0,1.0,1682.8400360355165,1025.7700555667666)">  <path stroke="none" xmlns:xlink="http://www.w3.org/1999/xlink" fill="#000000" stroke-dasharray="none" stroke-miterlimit="4" y="0px" stroke-width="1px" stroke-opacity="1" stroke-linecap="butt" xml:space="preserve" fill-opacity="1" x="0px" version="1.1" fill-rule="nonzero" stroke-linejoin="miter" d="M127.866,55.47L120.54,55.47L120.54,45.588C120.54,44.437,119.585,43.483,118.434,43.483L106.56,43.483L106.56,33.574C106.56,32.423,105.606,31.468,104.455,31.468L90.475,31.468C89.324,31.468,88.37,32.423,88.37,33.574L88.37,55.47L41.237,55.47L41.237,33.574C41.237,32.423,40.283,31.468,39.132,31.468L25.152,31.468C24.001,31.468,23.047,32.423,23.047,33.574L23.047,43.455L11.173,43.455C10.022,43.455,9.067,44.409,9.067,45.56L9.067,55.442L2.105,55.442C0.954,55.442,0,56.396,0,57.547L0,72.088C0,73.239,0.954,74.193,2.105,74.193L9.095,74.193L9.095,84.44C9.095,85.591,10.05,86.545,11.201,86.545L23.075,86.545L23.075,96.426C23.075,97.577,24.029,98.532,25.18,98.532L39.16,98.532C40.311,98.532,41.265,97.577,41.265,96.426L41.265,74.165L88.398,74.165L88.398,96.426C88.398,97.577,89.352,98.532,90.503,98.532L104.483,98.532C105.634,98.532,106.588,97.577,106.588,96.426L106.588,86.545L118.462,86.545C119.613,86.545,120.568,85.591,120.568,84.44L120.568,74.193L127.895,74.193C129.045,74.193,130,73.239,130,72.088L130,57.547C129.972,56.396,129.017,55.47,127.866,55.47ZM9.095,70.011L4.211,70.011L4.211,69.983L4.211,59.68L9.095,59.68L9.095,70.011ZM23.075,82.362L13.306,82.362L13.306,47.694L23.075,47.694L23.075,82.362ZM37.027,94.349L27.258,94.349L27.258,35.679L37.027,35.679L37.027,94.349ZM88.37,70.011L41.237,70.011L41.237,69.983L41.237,59.68L88.37,59.68L88.37,70.011ZM102.349,94.349L92.58,94.349L92.58,35.679L102.349,35.679L102.349,94.349ZM116.329,82.362L106.56,82.362L106.56,47.694L116.329,47.694L116.329,82.362ZM125.761,69.983L120.54,69.983L120.54,59.68L125.761,59.68L125.761,69.983ZM125.761,69.983"/>
</g>
  <g id="Regular-M" transform="matrix(1.0,0.0,0.0,1.0,1386.1300360355165,1025.7700555667666)">  <path x="0px" xml:space="preserve" version="1.1" stroke-miterlimit="4" stroke-dasharray="none" fill="#000000" stroke="none" stroke-opacity="1" stroke-linejoin="miter" y="0px" stroke-width="1px" fill-opacity="1" xmlns:xlink="http://www.w3.org/1999/xlink" stroke-linecap="butt" fill-rule="nonzero" d="M127.866,55.47L120.54,55.47L120.54,45.588C120.54,44.437,119.585,43.483,118.434,43.483L106.56,43.483L106.56,33.574C106.56,32.423,105.606,31.468,104.455,31.468L90.475,31.468C89.324,31.468,88.37,32.423,88.37,33.574L88.37,55.47L41.237,55.47L41.237,33.574C41.237,32.423,40.283,31.468,39.132,31.468L25.152,31.468C24.001,31.468,23.047,32.423,23.047,33.574L23.047,43.455L11.173,43.455C10.022,43.455,9.067,44.409,9.067,45.56L9.067,55.442L2.105,55.442C0.954,55.442,0,56.396,0,57.547L0,72.088C0,73.239,0.954,74.193,2.105,74.193L9.095,74.193L9.095,84.44C9.095,85.591,10.05,86.545,11.201,86.545L23.075,86.545L23.075,96.426C23.075,97.577,24.029,98.532,25.18,98.532L39.16,98.532C40.311,98.532,41.265,97.577,41.265,96.426L41.265,74.165L88.398,74.165L88.398,96.426C88.398,97.577,89.352,98.532,90.503,98.532L104.483,98.532C105.634,98.532,106.588,97.577,106.588,96.426L106.588,86.545L118.462,86.545C119.613,86.545,120.568,85.591,120.568,84.44L120.568,74.193L127.895,74.193C129.045,74.193,130,73.239,130,72.088L130,57.547C129.972,56.396,129.017,55.47,127.866,55.47ZM9.095,70.011L4.211,70.011L4.211,69.983L4.211,59.68L9.095,59.68L9.095,70.011ZM23.075,82.362L13.306,82.362L13.306,47.694L23.075,47.694L23.075,82.362ZM37.027,94.349L27.258,94.349L27.258,35.679L37.027,35.679L37.027,94.349ZM88.37,70.011L41.237,70.011L41.237,69.983L41.237,59.68L88.37,59.68L88.37,70.011ZM102.349,94.349L92.58,94.349L92.58,35.679L102.349,35.679L102.349,94.349ZM116.329,82.362L106.56,82.362L106.56,47.694L116.329,47.694L116.329,82.362ZM125.761,69.983L120.54,69.983L120.54,59.68L125.761,59.68L125.761,69.983ZM125.761,69.983"/>
</g>
  <g id="Light-M" transform="matrix(1.0,0.0,0.0,1.0,1089.4200360355167,1025.7700555667666)">  <path fill="#000000" stroke-linejoin="miter" stroke-miterlimit="4" fill-opacity="1" xmlns:xlink="http://www.w3.org/1999/xlink" stroke-dasharray="none" stroke="none" stroke-opacity="1" xml:space="preserve" stroke-linecap="butt" fill-rule="nonzero" x="0px" stroke-width="1px" version="1.1" y="0px" d="M127.866,55.47L120.54,55.47L120.54,45.588C120.54,44.437,119.585,43.483,118.434,43.483L106.56,43.483L106.56,33.574C106.56,32.423,105.606,31.468,104.455,31.468L90.475,31.468C89.324,31.468,88.37,32.423,88.37,33.574L88.37,55.47L41.237,55.47L41.237,33.574C41.237,32.423,40.283,31.468,39.132,31.468L25.152,31.468C24.001,31.468,23.047,32.423,23.047,33.574L23.047,43.455L11.173,43.455C10.022,43.455,9.067,44.409,9.067,45.56L9.067,55.442L2.105,55.442C0.954,55.442,0,56.396,0,57.547L0,72.088C0,73.239,0.954,74.193,2.105,74.193L9.095,74.193L9.095,84.44C9.095,85.591,10.05,86.545,11.201,86.545L23.075,86.545L23.075,96.426C23.075,97.577,24.029,98.532,25.18,98.532L39.16,98.532C40.311,98.532,41.265,97.577,41.265,96.426L41.265,74.165L88.398,74.165L88.398,96.426C88.398,97.577,89.352,98.532,90.503,98.532L104.483,98.532C105.634,98.532,106.588,97.577,106.588,96.426L106.588,86.545L118.462,86.545C119.613,86.545,120.568,85.591,120.568,84.44L120.568,74.193L127.895,74.193C129.045,74.193,130,73.239,130,72.088L130,57.547C129.972,56.396,129.017,55.47,127.866,55.47ZM9.095,70.011L4.211,70.011L4.211,69.983L4.211,59.68L9.095,59.68L9.095,70.011ZM23.075,82.362L13.306,82.362L13.306,47.694L23.075,47.694L23.075,82.362ZM37.027,94.349L27.258,94.349L27.258,35.679L37.027,35.679L37.027,94.349ZM88.37,70.011L41.237,70.011L41.237,69.983L41.237,59.68L88.37,59.68L88.37,70.011ZM102.349,94.349L92.58,94.349L92.58,35.679L102.349,35.679L102.349,94.349ZM116.329,82.362L106.56,82.362L106.56,47.694L116.329,47.694L116.329,82.362ZM125.761,69.983L120.54,69.983L120.54,59.68L125.761,59.68L125.761,69.983ZM125.761,69.983"/>
</g>
  <g id="Thin-M" transform="matrix(1.0,0.0,0.0,1.0,792.7100360355166,1025.7700555667666)">  <path xmlns:xlink="http://www.w3.org/1999/xlink" stroke-linecap="butt" x="0px" stroke-dasharray="none" stroke="none" stroke-width="1px" fill="#000000" version="1.1" fill-rule="nonzero" stroke-opacity="1" fill-opacity="1" y="0px" stroke-miterlimit="4" stroke-linejoin="miter" xml:space="preserve" d="M127.866,55.47L120.54,55.47L120.54,45.588C120.54,44.437,119.585,43.483,118.434,43.483L106.56,43.483L106.56,33.574C106.56,32.423,105.606,31.468,104.455,31.468L90.475,31.468C89.324,31.468,88.37,32.423,88.37,33.574L88.37,55.47L41.237,55.47L41.237,33.574C41.237,32.423,40.283,31.468,39.132,31.468L25.152,31.468C24.001,31.468,23.047,32.423,23.047,33.574L23.047,43.455L11.173,43.455C10.022,43.455,9.067,44.409,9.067,45.56L9.067,55.442L2.105,55.442C0.954,55.442,0,56.396,0,57.547L0,72.088C0,73.239,0.954,74.193,2.105,74.193L9.095,74.193L9.095,84.44C9.095,85.591,10.05,86.545,11.201,86.545L23.075,86.545L23.075,96.426C23.075,97.577,24.029,98.532,25.18,98.532L39.16,98.532C40.311,98.532,41.265,97.577,41.265,96.426L41.265,74.165L88.398,74.165L88.398,96.426C88.398,97.577,89.352,98.532,90.503,98.532L104.483,98.532C105.634,98.532,106.588,97.577,106.588,96.426L106.588,86.545L118.462,86.545C119.613,86.545,120.568,85.591,120.568,84.44L120.568,74.193L127.895,74.193C129.045,74.193,130,73.239,130,72.088L130,57.547C129.972,56.396,129.017,55.47,127.866,55.47ZM9.095,70.011L4.211,70.011L4.211,69.983L4.211,59.68L9.095,59.68L9.095,70.011ZM23.075,82.362L13.306,82.362L13.306,47.694L23.075,47.694L23.075,82.362ZM37.027,94.349L27.258,94.349L27.258,35.679L37.027,35.679L37.027,94.349ZM88.37,70.011L41.237,70.011L41.237,69.983L41.237,59.68L88.37,59.68L88.37,70.011ZM102.349,94.349L92.58,94.349L92.58,35.679L102.349,35.679L102.349,94.349ZM116.329,82.362L106.56,82.362L106.56,47.694L116.329,47.694L116.329,82.362ZM125.761,69.983L120.54,69.983L120.54,59.68L125.761,59.68L125.761,69.983ZM125.761,69.983"/>
</g>
  <g id="Ultralight-M" transform="matrix(1.0,0.0,0.0,1.0,496.0000360355166,1025.7700555667666)">  <path stroke-width="1px" stroke-dasharray="none" xmlns:xlink="http://www.w3.org/1999/xlink" fill="#000000" stroke-miterlimit="4" stroke-opacity="1" stroke-linejoin="miter" fill-rule="nonzero" xml:space="preserve" fill-opacity="1" y="0px" stroke-linecap="butt" x="0px" version="1.1" stroke="none" d="M127.866,55.47L120.54,55.47L120.54,45.588C120.54,44.437,119.585,43.483,118.434,43.483L106.56,43.483L106.56,33.574C106.56,32.423,105.606,31.468,104.455,31.468L90.475,31.468C89.324,31.468,88.37,32.423,88.37,33.574L88.37,55.47L41.237,55.47L41.237,33.574C41.237,32.423,40.283,31.468,39.132,31.468L25.152,31.468C24.001,31.468,23.047,32.423,23.047,33.574L23.047,43.455L11.173,43.455C10.022,43.455,9.067,44.409,9.067,45.56L9.067,55.442L2.105,55.442C0.954,55.442,0,56.396,0,57.547L0,72.088C0,73.239,0.954,74.193,2.105,74.193L9.095,74.193L9.095,84.44C9.095,85.591,10.05,86.545,11.201,86.545L23.075,86.545L23.075,96.426C23.075,97.577,24.029,98.532,25.18,98.532L39.16,98.532C40.311,98.532,41.265,97.577,41.265,96.426L41.265,74.165L88.398,74.165L88.398,96.426C88.398,97.577,89.352,98.532,90.503,98.532L104.483,98.532C105.634,98.532,106.588,97.577,106.588,96.426L106.588,86.545L118.462,86.545C119.613,86.545,120.568,85.591,120.568,84.44L120.568,74.193L127.895,74.193C129.045,74.193,130,73.239,130,72.088L130,57.547C129.972,56.396,129.017,55.47,127.866,55.47ZM9.095,70.011L4.211,70.011L4.211,69.983L4.211,59.68L9.095,59.68L9.095,70.011ZM23.075,82.362L13.306,82.362L13.306,47.694L23.075,47.694L23.075,82.362ZM37.027,94.349L27.258,94.349L27.258,35.679L37.027,35.679L37.027,94.349ZM88.37,70.011L41.237,70.011L41.237,69.983L41.237,59.68L88.37,59.68L88.37,70.011ZM102.349,94.349L92.58,94.349L92.58,35.679L102.349,35.679L102.349,94.349ZM116.329,82.362L106.56,82.362L106.56,47.694L116.329,47.694L116.329,82.362ZM125.761,69.983L120.54,69.983L120.54,59.68L125.761,59.68L125.761,69.983ZM125.761,69.983"/>
</g>
  <g id="Black-S" transform="matrix(1.0,0.0,0.0,1.0,2883.7850282158092,609.8750477470595)">  <path fill="#000000" stroke-linecap="butt" xml:space="preserve" fill-opacity="1" stroke-width="1px" stroke-miterlimit="4" stroke="none" version="1.1" stroke-dasharray="none" stroke-linejoin="miter" xmlns:xlink="http://www.w3.org/1999/xlink" y="0px" stroke-opacity="1" fill-rule="nonzero" x="0px" d="M100.119,43.433L94.383,43.433L94.383,35.696C94.383,34.795,93.635,34.047,92.734,34.047L83.437,34.047L83.437,26.288C83.437,25.387,82.689,24.64,81.788,24.64L70.842,24.64C69.941,24.64,69.193,25.387,69.193,26.288L69.193,43.433L32.289,43.433L32.289,26.288C32.289,25.387,31.541,24.64,30.64,24.64L19.694,24.64C18.793,24.64,18.046,25.387,18.046,26.288L18.046,34.025L8.748,34.025C7.847,34.025,7.1,34.773,7.1,35.674L7.1,43.411L1.649,43.411C0.747,43.411,0,44.158,0,45.059L0,56.445C0,57.346,0.747,58.093,1.649,58.093L7.122,58.093L7.122,66.116C7.122,67.017,7.869,67.765,8.77,67.765L18.068,67.765L18.068,75.502C18.068,76.403,18.815,77.15,19.716,77.15L30.662,77.15C31.563,77.15,32.311,76.403,32.311,75.502L32.311,58.071L69.215,58.071L69.215,75.502C69.215,76.403,69.963,77.15,70.864,77.15L81.81,77.15C82.711,77.15,83.459,76.403,83.459,75.502L83.459,67.765L92.756,67.765C93.657,67.765,94.405,67.017,94.405,66.116L94.405,58.093L100.141,58.093C101.043,58.093,101.79,57.346,101.79,56.445L101.79,45.059C101.768,44.158,101.021,43.433,100.119,43.433ZM7.122,54.818L3.297,54.818L3.297,54.796L3.297,46.73L7.122,46.73L7.122,54.818ZM18.068,64.49L10.419,64.49L10.419,37.344L18.068,37.344L18.068,64.49ZM28.992,73.875L21.343,73.875L21.343,27.937L28.992,27.937L28.992,73.875ZM69.193,54.818L32.289,54.818L32.289,54.796L32.289,46.73L69.193,46.73L69.193,54.818ZM80.14,73.875L72.49,73.875L72.49,27.937L80.14,27.937L80.14,73.875ZM91.086,64.49L83.437,64.49L83.437,37.344L91.086,37.344L91.086,64.49ZM98.471,54.796L94.383,54.796L94.383,46.73L98.471,46.73L98.471,54.796ZM98.471,54.796"/>
</g>
  <g id="Heavy-S" transform="matrix(1.0,0.0,0.0,1.0,2587.075028215809,609.8750477470595)">  <path version="1.1" xmlns:xlink="http://www.w3.org/1999/xlink" stroke-width="1px" stroke-miterlimit="4" stroke="none" y="0px" stroke-opacity="1" stroke-dasharray="none" stroke-linecap="butt" fill-rule="nonzero" fill="#000000" fill-opacity="1" x="0px" stroke-linejoin="miter" xml:space="preserve" d="M100.119,43.433L94.383,43.433L94.383,35.696C94.383,34.795,93.635,34.047,92.734,34.047L83.437,34.047L83.437,26.288C83.437,25.387,82.689,24.64,81.788,24.64L70.842,24.64C69.941,24.64,69.193,25.387,69.193,26.288L69.193,43.433L32.289,43.433L32.289,26.288C32.289,25.387,31.541,24.64,30.64,24.64L19.694,24.64C18.793,24.64,18.046,25.387,18.046,26.288L18.046,34.025L8.748,34.025C7.847,34.025,7.1,34.773,7.1,35.674L7.1,43.411L1.649,43.411C0.747,43.411,0,44.158,0,45.059L0,56.445C0,57.346,0.747,58.093,1.649,58.093L7.122,58.093L7.122,66.116C7.122,67.017,7.869,67.765,8.77,67.765L18.068,67.765L18.068,75.502C18.068,76.403,18.815,77.15,19.716,77.15L30.662,77.15C31.563,77.15,32.311,76.403,32.311,75.502L32.311,58.071L69.215,58.071L69.215,75.502C69.215,76.403,69.963,77.15,70.864,77.15L81.81,77.15C82.711,77.15,83.459,76.403,83.459,75.502L83.459,67.765L92.756,67.765C93.657,67.765,94.405,67.017,94.405,66.116L94.405,58.093L100.141,58.093C101.043,58.093,101.79,57.346,101.79,56.445L101.79,45.059C101.768,44.158,101.021,43.433,100.119,43.433ZM7.122,54.818L3.297,54.818L3.297,54.796L3.297,46.73L7.122,46.73L7.122,54.818ZM18.068,64.49L10.419,64.49L10.419,37.344L18.068,37.344L18.068,64.49ZM28.992,73.875L21.343,73.875L21.343,27.937L28.992,27.937L28.992,73.875ZM69.193,54.818L32.289,54.818L32.289,54.796L32.289,46.73L69.193,46.73L69.193,54.818ZM80.14,73.875L72.49,73.875L72.49,27.937L80.14,27.937L80.14,73.875ZM91.086,64.49L83.437,64.49L83.437,37.344L91.086,37.344L91.086,64.49ZM98.471,54.796L94.383,54.796L94.383,46.73L98.471,46.73L98.471,54.796ZM98.471,54.796"/>
</g>
  <g id="Bold-S" transform="matrix(1.0,0.0,0.0,1.0,2290.365028215809,609.8750477470595)">  <path xml:space="preserve" stroke-linejoin="miter" fill-rule="nonzero" stroke="none" stroke-linecap="butt" stroke-dasharray="none" stroke-miterlimit="4" stroke-width="1px" y="0px" x="0px" fill-opacity="1" stroke-opacity="1" version="1.1" fill="#000000" xmlns:xlink="http://www.w3.org/1999/xlink" d="M100.119,43.433L94.383,43.433L94.383,35.696C94.383,34.795,93.635,34.047,92.734,34.047L83.437,34.047L83.437,26.288C83.437,25.387,82.689,24.64,81.788,24.64L70.842,24.64C69.941,24.64,69.193,25.387,69.193,26.288L69.193,43.433L32.289,43.433L32.289,26.288C32.289,25.387,31.541,24.64,30.64,24.64L19.694,24.64C18.793,24.64,18.046,25.387,18.046,26.288L18.046,34.025L8.748,34.025C7.847,34.025,7.1,34.773,7.1,35.674L7.1,43.411L1.649,43.411C0.747,43.411,0,44.158,0,45.059L0,56.445C0,57.346,0.747,58.093,1.649,58.093L7.122,58.093L7.122,66.116C7.122,67.017,7.869,67.765,8.77,67.765L18.068,67.765L18.068,75.502C18.068,76.403,18.815,77.15,19.716,77.15L30.662,77.15C31.563,77.15,32.311,76.403,32.311,75.502L32.311,58.071L69.215,58.071L69.215,75.502C69.215,76.403,69.963,77.15,70.864,77.15L81.81,77.15C82.711,77.15,83.459,76.403,83.459,75.502L83.459,67.765L92.756,67.765C93.657,67.765,94.405,67.017,94.405,66.116L94.405,58.093L100.141,58.093C101.043,58.093,101.79,57.346,101.79,56.445L101.79,45.059C101.768,44.158,101.021,43.433,100.119,43.433ZM7.122,54.818L3.297,54.818L3.297,54.796L3.297,46.73L7.122,46.73L7.122,54.818ZM18.068,64.49L10.419,64.49L10.419,37.344L18.068,37.344L18.068,64.49ZM28.992,73.875L21.343,73.875L21.343,27.937L28.992,27.937L28.992,73.875ZM69.193,54.818L32.289,54.818L32.289,54.796L32.289,46.73L69.193,46.73L69.193,54.818ZM80.14,73.875L72.49,73.875L72.49,27.937L80.14,27.937L80.14,73.875ZM91.086,64.49L83.437,64.49L83.437,37.344L91.086,37.344L91.086,64.49ZM98.471,54.796L94.383,54.796L94.383,46.73L98.471,46.73L98.471,54.796ZM98.471,54.796"/>
</g>
  <g id="Semibold-S" transform="matrix(1.0,0.0,0.0,1.0,1993.6550282158096,609.8750477470595)">  <path x="0px" xmlns:xlink="http://www.w3.org/1999/xlink" y="0px" fill-rule="nonzero" stroke-dasharray="none" stroke-linejoin="miter" stroke-width="1px" version="1.1" fill="#000000" stroke-linecap="butt" fill-opacity="1" xml:space="preserve" stroke-opacity="1" stroke="none" stroke-miterlimit="4" d="M100.119,43.433L94.383,43.433L94.383,35.696C94.383,34.795,93.635,34.047,92.734,34.047L83.437,34.047L83.437,26.288C83.437,25.387,82.689,24.64,81.788,24.64L70.842,24.64C69.941,24.64,69.193,25.387,69.193,26.288L69.193,43.433L32.289,43.433L32.289,26.288C32.289,25.387,31.541,24.64,30.64,24.64L19.694,24.64C18.793,24.64,18.046,25.387,18.046,26.288L18.046,34.025L8.748,34.025C7.847,34.025,7.1,34.773,7.1,35.674L7.1,43.411L1.649,43.411C0.747,43.411,0,44.158,0,45.059L0,56.445C0,57.346,0.747,58.093,1.649,58.093L7.122,58.093L7.122,66.116C7.122,67.017,7.869,67.765,8.77,67.765L18.068,67.765L18.068,75.502C18.068,76.403,18.815,77.15,19.716,77.15L30.662,77.15C31.563,77.15,32.311,76.403,32.311,75.502L32.311,58.071L69.215,58.071L69.215,75.502C69.215,76.403,69.963,77.15,70.864,77.15L81.81,77.15C82.711,77.15,83.459,76.403,83.459,75.502L83.459,67.765L92.756,67.765C93.657,67.765,94.405,67.017,94.405,66.116L94.405,58.093L100.141,58.093C101.043,58.093,101.79,57.346,101.79,56.445L101.79,45.059C101.768,44.158,101.021,43.433,100.119,43.433ZM7.122,54.818L3.297,54.818L3.297,54.796L3.297,46.73L7.122,46.73L7.122,54.818ZM18.068,64.49L10.419,64.49L10.419,37.344L18.068,37.344L18.068,64.49ZM28.992,73.875L21.343,73.875L21.343,27.937L28.992,27.937L28.992,73.875ZM69.193,54.818L32.289,54.818L32.289,54.796L32.289,46.73L69.193,46.73L69.193,54.818ZM80.14,73.875L72.49,73.875L72.49,27.937L80.14,27.937L80.14,73.875ZM91.086,64.49L83.437,64.49L83.437,37.344L91.086,37.344L91.086,64.49ZM98.471,54.796L94.383,54.796L94.383,46.73L98.471,46.73L98.471,54.796ZM98.471,54.796"/>
</g>
  <g id="Medium-S" transform="matrix(1.0,0.0,0.0,1.0,1696.9450282158095,609.8750477470595)">  <path stroke="none" xmlns:xlink="http://www.w3.org/1999/xlink" fill="#000000" stroke-dasharray="none" stroke-miterlimit="4" y="0px" stroke-width="1px" stroke-opacity="1" stroke-linecap="butt" xml:space="preserve" fill-opacity="1" x="0px" version="1.1" fill-rule="nonzero" stroke-linejoin="miter" d="M100.119,43.433L94.383,43.433L94.383,35.696C94.383,34.795,93.635,34.047,92.734,34.047L83.437,34.047L83.437,26.288C83.437,25.387,82.689,24.64,81.788,24.64L70.842,24.64C69.941,24.64,69.193,25.387,69.193,26.288L69.193,43.433L32.289,43.433L32.289,26.288C32.289,25.387,31.541,24.64,30.64,24.64L19.694,24.64C18.793,24.64,18.046,25.387,18.046,26.288L18.046,34.025L8.748,34.025C7.847,34.025,7.1,34.773,7.1,35.674L7.1,43.411L1.649,43.411C0.747,43.411,0,44.158,0,45.059L0,56.445C0,57.346,0.747,58.093,1.649,58.093L7.122,58.093L7.122,66.116C7.122,67.017,7.869,67.765,8.77,67.765L18.068,67.765L18.068,75.502C18.068,76.403,18.815,77.15,19.716,77.15L30.662,77.15C31.563,77.15,32.311,76.403,32.311,75.502L32.311,58.071L69.215,58.071L69.215,75.502C69.215,76.403,69.963,77.15,70.864,77.15L81.81,77.15C82.711,77.15,83.459,76.403,83.459,75.502L83.459,67.765L92.756,67.765C93.657,67.765,94.405,67.017,94.405,66.116L94.405,58.093L100.141,58.093C101.043,58.093,101.79,57.346,101.79,56.445L101.79,45.059C101.768,44.158,101.021,43.433,100.119,43.433ZM7.122,54.818L3.297,54.818L3.297,54.796L3.297,46.73L7.122,46.73L7.122,54.818ZM18.068,64.49L10.419,64.49L10.419,37.344L18.068,37.344L18.068,64.49ZM28.992,73.875L21.343,73.875L21.343,27.937L28.992,27.937L28.992,73.875ZM69.193,54.818L32.289,54.818L32.289,54.796L32.289,46.73L69.193,46.73L69.193,54.818ZM80.14,73.875L72.49,73.875L72.49,27.937L80.14,27.937L80.14,73.875ZM91.086,64.49L83.437,64.49L83.437,37.344L91.086,37.344L91.086,64.49ZM98.471,54.796L94.383,54.796L94.383,46.73L98.471,46.73L98.471,54.796ZM98.471,54.796"/>
</g>
  <g id="Regular-S" transform="matrix(1.0,0.0,0.0,1.0,1400.2350282158095,609.8750477470595)">  <path x="0px" xml:space="preserve" version="1.1" stroke-miterlimit="4" stroke-dasharray="none" fill="#000000" stroke="none" stroke-opacity="1" stroke-linejoin="miter" y="0px" stroke-width="1px" fill-opacity="1" xmlns:xlink="http://www.w3.org/1999/xlink" stroke-linecap="butt" fill-rule="nonzero" d="M100.119,43.433L94.383,43.433L94.383,35.696C94.383,34.795,93.635,34.047,92.734,34.047L83.437,34.047L83.437,26.288C83.437,25.387,82.689,24.64,81.788,24.64L70.842,24.64C69.941,24.64,69.193,25.387,69.193,26.288L69.193,43.433L32.289,43.433L32.289,26.288C32.289,25.387,31.541,24.64,30.64,24.64L19.694,24.64C18.793,24.64,18.046,25.387,18.046,26.288L18.046,34.025L8.748,34.025C7.847,34.025,7.1,34.773,7.1,35.674L7.1,43.411L1.649,43.411C0.747,43.411,0,44.158,0,45.059L0,56.445C0,57.346,0.747,58.093,1.649,58.093L7.122,58.093L7.122,66.116C7.122,67.017,7.869,67.765,8.77,67.765L18.068,67.765L18.068,75.502C18.068,76.403,18.815,77.15,19.716,77.15L30.662,77.15C31.563,77.15,32.311,76.403,32.311,75.502L32.311,58.071L69.215,58.071L69.215,75.502C69.215,76.403,69.963,77.15,70.864,77.15L81.81,77.15C82.711,77.15,83.459,76.403,83.459,75.502L83.459,67.765L92.756,67.765C93.657,67.765,94.405,67.017,94.405,66.116L94.405,58.093L100.141,58.093C101.043,58.093,101.79,57.346,101.79,56.445L101.79,45.059C101.768,44.158,101.021,43.433,100.119,43.433ZM7.122,54.818L3.297,54.818L3.297,54.796L3.297,46.73L7.122,46.73L7.122,54.818ZM18.068,64.49L10.419,64.49L10.419,37.344L18.068,37.344L18.068,64.49ZM28.992,73.875L21.343,73.875L21.343,27.937L28.992,27.937L28.992,73.875ZM69.193,54.818L32.289,54.818L32.289,54.796L32.289,46.73L69.193,46.73L69.193,54.818ZM80.14,73.875L72.49,73.875L72.49,27.937L80.14,27.937L80.14,73.875ZM91.086,64.49L83.437,64.49L83.437,37.344L91.086,37.344L91.086,64.49ZM98.471,54.796L94.383,54.796L94.383,46.73L98.471,46.73L98.471,54.796ZM98.471,54.796"/>
</g>
  <g id="Light-S" transform="matrix(1.0,0.0,0.0,1.0,1103.5250282158095,609.8750477470595)">  <path fill="#000000" stroke-linejoin="miter" stroke-miterlimit="4" fill-opacity="1" xmlns:xlink="http://www.w3.org/1999/xlink" stroke-dasharray="none" stroke="none" stroke-opacity="1" xml:space="preserve" stroke-linecap="butt" fill-rule="nonzero" x="0px" stroke-width="1px" version="1.1" y="0px" d="M100.119,43.433L94.383,43.433L94.383,35.696C94.383,34.795,93.635,34.047,92.734,34.047L83.437,34.047L83.437,26.288C83.437,25.387,82.689,24.64,81.788,24.64L70.842,24.64C69.941,24.64,69.193,25.387,69.193,26.288L69.193,43.433L32.289,43.433L32.289,26.288C32.289,25.387,31.541,24.64,30.64,24.64L19.694,24.64C18.793,24.64,18.046,25.387,18.046,26.288L18.046,34.025L8.748,34.025C7.847,34.025,7.1,34.773,7.1,35.674L7.1,43.411L1.649,43.411C0.747,43.411,0,44.158,0,45.059L0,56.445C0,57.346,0.747,58.093,1.649,58.093L7.122,58.093L7.122,66.116C7.122,67.017,7.869,67.765,8.77,67.765L18.068,67.765L18.068,75.502C18.068,76.403,18.815,77.15,19.716,77.15L30.662,77.15C31.563,77.15,32.311,76.403,32.311,75.502L32.311,58.071L69.215,58.071L69.215,75.502C69.215,76.403,69.963,77.15,70.864,77.15L81.81,77.15C82.711,77.15,83.459,76.403,83.459,75.502L83.459,67.765L92.756,67.765C93.657,67.765,94.405,67.017,94.405,66.116L94.405,58.093L100.141,58.093C101.043,58.093,101.79,57.346,101.79,56.445L101.79,45.059C101.768,44.158,101.021,43.433,100.119,43.433ZM7.122,54.818L3.297,54.818L3.297,54.796L3.297,46.73L7.122,46.73L7.122,54.818ZM18.068,64.49L10.419,64.49L10.419,37.344L18.068,37.344L18.068,64.49ZM28.992,73.875L21.343,73.875L21.343,27.937L28.992,27.937L28.992,73.875ZM69.193,54.818L32.289,54.818L32.289,54.796L32.289,46.73L69.193,46.73L69.193,54.818ZM80.14,73.875L72.49,73.875L72.49,27.937L80.14,27.937L80.14,73.875ZM91.086,64.49L83.437,64.49L83.437,37.344L91.086,37.344L91.086,64.49ZM98.471,54.796L94.383,54.796L94.383,46.73L98.471,46.73L98.471,54.796ZM98.471,54.796"/>
</g>
  <g id="Thin-S" transform="matrix(1.0,0.0,0.0,1.0,806.8150282158095,609.8750477470595)">  <path xmlns:xlink="http://www.w3.org/1999/xlink" stroke-linecap="butt" x="0px" stroke-dasharray="none" stroke="none" stroke-width="1px" fill="#000000" version="1.1" fill-rule="nonzero" stroke-opacity="1" fill-opacity="1" y="0px" stroke-miterlimit="4" stroke-linejoin="miter" xml:space="preserve" d="M100.119,43.433L94.383,43.433L94.383,35.696C94.383,34.795,93.635,34.047,92.734,34.047L83.437,34.047L83.437,26.288C83.437,25.387,82.689,24.64,81.788,24.64L70.842,24.64C69.941,24.64,69.193,25.387,69.193,26.288L69.193,43.433L32.289,43.433L32.289,26.288C32.289,25.387,31.541,24.64,30.64,24.64L19.694,24.64C18.793,24.64,18.046,25.387,18.046,26.288L18.046,34.025L8.748,34.025C7.847,34.025,7.1,34.773,7.1,35.674L7.1,43.411L1.649,43.411C0.747,43.411,0,44.158,0,45.059L0,56.445C0,57.346,0.747,58.093,1.649,58.093L7.122,58.093L7.122,66.116C7.122,67.017,7.869,67.765,8.77,67.765L18.068,67.765L18.068,75.502C18.068,76.403,18.815,77.15,19.716,77.15L30.662,77.15C31.563,77.15,32.311,76.403,32.311,75.502L32.311,58.071L69.215,58.071L69.215,75.502C69.215,76.403,69.963,77.15,70.864,77.15L81.81,77.15C82.711,77.15,83.459,76.403,83.459,75.502L83.459,67.765L92.756,67.765C93.657,67.765,94.405,67.017,94.405,66.116L94.405,58.093L100.141,58.093C101.043,58.093,101.79,57.346,101.79,56.445L101.79,45.059C101.768,44.158,101.021,43.433,100.119,43.433ZM7.122,54.818L3.297,54.818L3.297,54.796L3.297,46.73L7.122,46.73L7.122,54.818ZM18.068,64.49L10.419,64.49L10.419,37.344L18.068,37.344L18.068,64.49ZM28.992,73.875L21.343,73.875L21.343,27.937L28.992,27.937L28.992,73.875ZM69.193,54.818L32.289,54.818L32.289,54.796L32.289,46.73L69.193,46.73L69.193,54.818ZM80.14,73.875L72.49,73.875L72.49,27.937L80.14,27.937L80.14,73.875ZM91.086,64.49L83.437,64.49L83.437,37.344L91.086,37.344L91.086,64.49ZM98.471,54.796L94.383,54.796L94.383,46.73L98.471,46.73L98.471,54.796ZM98.471,54.796"/>
</g>
  <g id="Ultralight-S" transform="matrix(1.0,0.0,0.0,1.0,510.1050282158095,609.8750477470595)">  <path stroke-width="1px" stroke-dasharray="none" xmlns:xlink="http://www.w3.org/1999/xlink" fill="#000000" stroke-miterlimit="4" stroke-opacity="1" stroke-linejoin="miter" fill-rule="nonzero" xml:space="preserve" fill-opacity="1" y="0px" stroke-linecap="butt" x="0px" version="1.1" stroke="none" d="M100.119,43.433L94.383,43.433L94.383,35.696C94.383,34.795,93.635,34.047,92.734,34.047L83.437,34.047L83.437,26.288C83.437,25.387,82.689,24.64,81.788,24.64L70.842,24.64C69.941,24.64,69.193,25.387,69.193,26.288L69.193,43.433L32.289,43.433L32.289,26.288C32.289,25.387,31.541,24.64,30.64,24.64L19.694,24.64C18.793,24.64,18.046,25.387,18.046,26.288L18.046,34.025L8.748,34.025C7.847,34.025,7.1,34.773,7.1,35.674L7.1,43.411L1.649,43.411C0.747,43.411,0,44.158,0,45.059L0,56.445C0,57.346,0.747,58.093,1.649,58.093L7.122,58.093L7.122,66.116C7.122,67.017,7.869,67.765,8.77,67.765L18.068,67.765L18.068,75.502C18.068,76.403,18.815,77.15,19.716,77.15L30.662,77.15C31.563,77.15,32.311,76.403,32.311,75.502L32.311,58.071L69.215,58.071L69.215,75.502C69.215,76.403,69.963,77.15,70.864,77.15L81.81,77.15C82.711,77.15,83.459,76.403,83.459,75.502L83.459,67.765L92.756,67.765C93.657,67.765,94.405,67.017,94.405,66.116L94.405,58.093L100.141,58.093C101.043,58.093,101.79,57.346,101.79,56.445L101.79,45.059C101.768,44.158,101.021,43.433,100.119,43.433ZM7.122,54.818L3.297,54.818L3.297,54.796L3.297,46.73L7.122,46.73L7.122,54.818ZM18.068,64.49L10.419,64.49L10.419,37.344L18.068,37.344L18.068,64.49ZM28.992,73.875L21.343,73.875L21.343,27.937L28.992,27.937L28.992,73.875ZM69.193,54.818L32.289,54.818L32.289,54.796L32.289,46.73L69.193,46.73L69.193,54.818ZM80.14,73.875L72.49,73.875L72.49,27.937L80.14,27.937L80.14,73.875ZM91.086,64.49L83.437,64.49L83.437,37.344L91.086,37.344L91.086,64.49ZM98.471,54.796L94.383,54.796L94.383,46.73L98.471,46.73L98.471,54.796ZM98.471,54.796"/>
</g>
 </g>
</svg>
