<svg width="30" height="34" viewBox="0 0 30 34" fill="none" xmlns="http://www.w3.org/2000/svg">
<path d="M10.5 0C10.2215 0 9.95445 0.110625 9.75754 0.307538C9.56062 0.504451 9.45 0.771523 9.45 1.05C9.45 1.32848 9.56062 1.59555 9.75754 1.79246C9.95445 1.98937 10.2215 2.1 10.5 2.1H18.9C19.1785 2.1 19.4455 1.98937 19.6425 1.79246C19.8394 1.59555 19.95 1.32848 19.95 1.05C19.95 0.771523 19.8394 0.504451 19.6425 0.307538C19.4455 0.110625 19.1785 0 18.9 0H10.5ZM26.5776 4.0509C26.4807 3.95061 26.3649 3.87062 26.2368 3.81559C26.1087 3.76056 25.9709 3.7316 25.8315 3.73039C25.6921 3.72918 25.5538 3.75574 25.4247 3.80854C25.2957 3.86133 25.1785 3.9393 25.0799 4.03789C24.9813 4.13647 24.9033 4.25371 24.8505 4.38275C24.7977 4.51179 24.7712 4.65005 24.7724 4.78947C24.7736 4.92889 24.8026 5.06667 24.8576 5.19478C24.9126 5.32288 24.9926 5.43874 25.0929 5.5356L28.0623 8.505C28.1592 8.60529 28.275 8.68528 28.4031 8.74031C28.5312 8.79534 28.669 8.8243 28.8084 8.82551C28.9478 8.82672 29.0861 8.80016 29.2152 8.74736C29.3442 8.69457 29.4614 8.6166 29.56 8.51801C29.6586 8.41943 29.7366 8.30219 29.7894 8.17315C29.8422 8.04411 29.8687 7.90585 29.8675 7.76643C29.8663 7.62701 29.8373 7.48923 29.7823 7.36112C29.7273 7.23302 29.6473 7.11716 29.547 7.0203L26.5776 4.053V4.0509ZM14.7 8.4C14.4215 8.4 14.1544 8.51062 13.9575 8.70754C13.7606 8.90445 13.65 9.17152 13.65 9.45V19.95C13.65 20.2285 13.7606 20.4955 13.9575 20.6925C14.1544 20.8894 14.4215 21 14.7 21C14.9785 21 15.2455 20.8894 15.4425 20.6925C15.6394 20.4955 15.75 20.2285 15.75 19.95V9.45C15.75 9.17152 15.6394 8.90445 15.4425 8.70754C15.2455 8.51062 14.9785 8.4 14.7 8.4ZM14.7 33.6C16.6304 33.6 18.542 33.2198 20.3254 32.481C22.1089 31.7423 23.7294 30.6595 25.0945 29.2945C26.4595 27.9294 27.5423 26.3089 28.281 24.5254C29.0198 22.742 29.4 20.8304 29.4 18.9C29.4 16.9696 29.0198 15.058 28.281 13.2746C27.5423 11.4911 26.4595 9.87055 25.0945 8.50553C23.7294 7.14051 22.1089 6.05771 20.3254 5.31897C18.542 4.58023 16.6304 4.2 14.7 4.2C10.8013 4.2 7.06231 5.74874 4.30553 8.50553C1.54875 11.2623 0 15.0013 0 18.9C0 22.7987 1.54875 26.5377 4.30553 29.2945C7.06231 32.0513 10.8013 33.6 14.7 33.6ZM14.7 31.5C13.0453 31.5 11.4069 31.1741 9.87819 30.5409C8.34949 29.9077 6.96047 28.9796 5.79045 27.8095C4.62044 26.6395 3.69233 25.2505 3.05912 23.7218C2.42591 22.1931 2.1 20.5547 2.1 18.9C2.1 17.2453 2.42591 15.6069 3.05912 14.0782C3.69233 12.5495 4.62044 11.1605 5.79045 9.99045C6.96047 8.82044 8.34949 7.89233 9.87819 7.25912C11.4069 6.62591 13.0453 6.3 14.7 6.3C18.0417 6.3 21.2466 7.6275 23.6095 9.99045C25.9725 12.3534 27.3 15.5583 27.3 18.9C27.3 22.2417 25.9725 25.4466 23.6095 27.8095C21.2466 30.1725 18.0417 31.5 14.7 31.5Z" fill="black"/>
</svg>
