<svg width="42" height="42" viewBox="0 0 42 42" fill="none" xmlns="http://www.w3.org/2000/svg">
<path d="M19.95 6.3C20.1958 6.29992 20.4338 6.38604 20.6225 6.54337C20.8113 6.7007 20.939 6.91926 20.9832 7.161L21 7.35V13.65C21.0002 14.8603 20.5823 16.0335 19.817 16.971C19.0516 17.9086 17.9858 18.5529 16.8 18.795V34.65C16.8005 34.9124 16.7027 35.1654 16.5259 35.3593C16.3492 35.5532 16.1062 35.6739 15.8449 35.6976C15.5836 35.7213 15.3228 35.6464 15.1141 35.4874C14.9053 35.3285 14.7635 35.0972 14.7168 34.839L14.7 34.65V18.795C13.5747 18.5649 12.556 17.9722 11.7997 17.1078C11.0434 16.2434 10.5913 15.155 10.5126 14.0091L10.5 13.65V7.35C10.4995 7.08761 10.5973 6.83456 10.7741 6.64066C10.9508 6.44676 11.1938 6.32607 11.4551 6.30236C11.7164 6.27865 11.9772 6.35364 12.1859 6.51256C12.3947 6.67148 12.5365 6.90281 12.5832 7.161L12.6 7.35V13.65C12.5997 14.3017 12.8015 14.9374 13.1776 15.4696C13.5537 16.0018 14.0856 16.4043 14.7 16.6215V7.35C14.6995 7.08761 14.7973 6.83456 14.9741 6.64066C15.1508 6.44676 15.3938 6.32607 15.6551 6.30236C15.9164 6.27865 16.1772 6.35364 16.3859 6.51256C16.5947 6.67148 16.7365 6.90281 16.7832 7.161L16.8 7.35V16.6194C17.9298 16.2204 18.7635 15.1956 18.8853 13.9629L18.9 13.65V7.35C18.9 7.07152 19.0106 6.80445 19.2075 6.60754C19.4045 6.41063 19.6715 6.3 19.95 6.3ZM30.45 6.3C30.6958 6.29992 30.9338 6.38604 31.1225 6.54337C31.3113 6.7007 31.439 6.91926 31.4832 7.161L31.5 7.35V34.65C31.5005 34.9124 31.4027 35.1654 31.2259 35.3593C31.0492 35.5532 30.8062 35.6739 30.5449 35.6976C30.2836 35.7213 30.0228 35.6464 29.8141 35.4874C29.6053 35.3285 29.4635 35.0972 29.4168 34.839L29.4 34.65V23.1H26.25C26.0042 23.1001 25.7663 23.014 25.5775 22.8566C25.3887 22.6993 25.261 22.4807 25.2168 22.239L25.2 22.05V11.55C25.2 10.1576 25.7531 8.82226 26.7377 7.83769C27.7223 6.85312 29.0576 6.3 30.45 6.3ZM29.4 21V8.5785C28.2702 8.9775 27.4365 10.0023 27.3147 11.2371L27.3 11.55V21H29.4V8.5785V21Z" fill="black"/>
</svg>
